<svg width="14" height="14" viewBox="0 0 14 14" fill="none" xmlns="http://www.w3.org/2000/svg">
<path d="M5.44828 2.40987C6.03668 0.888168 6.33088 0.126369 6.80929 0.0208008C6.93498 -0.00693361 7.06488 -0.00693361 7.19056 0.0208008C7.66806 0.125418 7.96318 0.887217 8.55157 2.40987C8.8861 3.27533 9.0529 3.70806 9.36635 4.00289C9.45433 4.08564 9.54965 4.15887 9.65047 4.22164C10.0125 4.44894 10.4643 4.49079 11.368 4.57448C12.8977 4.71714 13.662 4.78752 13.8957 5.24022C13.9441 5.33406 13.9769 5.43565 13.9929 5.54076C14.0708 6.04767 13.508 6.57742 12.3835 7.63975L12.0719 7.93458C11.5458 8.43103 11.2837 8.67926 11.1315 8.98836C11.0398 9.17406 10.9785 9.37429 10.9501 9.58087C10.9024 9.9242 10.9794 10.2847 11.1334 11.0046L11.1884 11.2614C11.4642 12.5529 11.6026 13.1987 11.4303 13.5154C11.3542 13.6557 11.2449 13.7736 11.1128 13.8581C10.9807 13.9426 10.8301 13.9909 10.6751 13.9985C10.325 14.0166 9.83102 13.5991 8.84211 12.7631C8.19139 12.2125 7.86603 11.9376 7.50492 11.8301C7.1749 11.732 6.82495 11.732 6.49493 11.8301C6.13383 11.9376 5.80755 12.2125 5.15683 12.7631C4.16884 13.5981 3.67484 14.0166 3.32382 13.9995C3.16888 13.9916 3.01841 13.9431 2.88649 13.8584C2.75456 13.7738 2.64551 13.6557 2.56953 13.5154C2.39723 13.1987 2.53562 12.5529 2.81149 11.2614L2.86648 11.0046C3.02045 10.2847 3.09744 9.9242 3.04978 9.58087C3.02102 9.37437 2.95971 9.1742 2.86831 8.98836C2.71617 8.67926 2.45405 8.43103 1.92798 7.93458L1.61636 7.63975C0.491808 6.57837 -0.0700113 6.04767 0.00697535 5.54076C0.0229289 5.43565 0.0557682 5.33406 0.104125 5.24022C0.337834 4.78752 1.10312 4.71714 2.63185 4.57448C3.53553 4.49079 3.98737 4.44894 4.34847 4.22259C4.44979 4.15905 4.54494 4.08547 4.63259 4.00289C4.94695 3.70806 5.11376 3.27533 5.44828 2.40987Z" fill="#00E0C6" fill-opacity="0.776471"/>
</svg>
