<svg width="75" height="75" viewBox="0 0 75 75" fill="none" xmlns="http://www.w3.org/2000/svg">
<g filter="url(#filter0_d_68_128)">
<circle cx="37.5" cy="33.5" r="27.5" fill="white"/>
</g>
<path d="M44.9917 42.697C41.8017 51.3562 41.85 52.0719 40.3517 50.7837C38.8533 49.4956 38.2733 48.3506 41.5117 39.7629C44.75 31.1753 45.6683 31.2468 47.1667 32.535C48.6167 33.7516 48.1817 34.1094 44.9917 42.697Z" fill="#454749"/>
<path d="M47.9884 45.2733C45.9584 50.7837 43.445 53.4316 42.2367 52.4297C40.7384 51.1416 41.5117 51.1416 44.7017 42.4824C47.8917 33.8232 47.505 32.8213 49.0034 34.1094C50.2117 35.1113 50.0184 39.7629 47.9884 45.2733Z" fill="#7A4E3B"/>
<path d="M30.0084 42.697C33.1984 51.3562 33.15 52.0719 34.6484 50.7837C36.1467 49.4956 36.7267 48.3506 33.4884 39.7629C30.25 31.1753 29.3317 31.2468 27.8334 32.535C26.3834 33.7516 26.8184 34.1094 30.0084 42.697Z" fill="#454749"/>
<path d="M27.9784 45.3553C30.0084 50.8657 32.5217 53.5135 33.73 52.5117C35.2284 51.2235 34.455 51.2235 31.265 42.5643C28.075 33.9051 28.4617 32.9032 26.9634 34.1913C25.755 35.1932 25.9484 39.8449 27.9784 45.3553Z" fill="#7A4E3B"/>
<path d="M27.495 51.7141C27.495 51.7141 30.105 52.716 30.2983 51.7141C31.5067 45.9174 24.7883 42.4823 24.7883 35.8985C24.7883 25.3071 30.4917 16.7194 37.5 16.7194C44.5083 16.7194 50.2117 25.3071 50.2117 35.8985C50.2117 42.4823 43.4933 45.9174 44.7017 51.7141C44.895 52.716 47.505 51.7141 47.505 51.7141C50.26 47.7065 52 42.1245 52 35.8985C52 23.8042 45.5233 14 37.5 14C29.4767 14 23 23.8042 23 35.8985C23 42.1245 24.74 47.7065 27.495 51.7141Z" fill="#5C3D3D"/>
<path d="M29.235 23.017C30.9266 22.5161 33.1016 18.9379 37.5 18.9379C41.8983 18.9379 44.1216 22.5876 45.765 23.017C46.4416 23.2317 47.6016 21.6573 47.6016 21.6573C44.9433 17.1488 41.8016 14.8588 37.5 14.8588C33.1983 14.8588 30.0566 17.1488 27.3983 21.6573C27.3983 21.7289 28.5583 23.2317 29.235 23.017Z" fill="#454749"/>
<defs>
<filter id="filter0_d_68_128" x="0" y="0" width="75" height="75" filterUnits="userSpaceOnUse" color-interpolation-filters="sRGB">
<feFlood flood-opacity="0" result="BackgroundImageFix"/>
<feColorMatrix in="SourceAlpha" type="matrix" values="0 0 0 0 0 0 0 0 0 0 0 0 0 0 0 0 0 0 127 0" result="hardAlpha"/>
<feOffset dy="4"/>
<feGaussianBlur stdDeviation="5"/>
<feComposite in2="hardAlpha" operator="out"/>
<feColorMatrix type="matrix" values="0 0 0 0 0 0 0 0 0 0 0 0 0 0 0 0 0 0 0.04 0"/>
<feBlend mode="normal" in2="BackgroundImageFix" result="effect1_dropShadow_68_128"/>
<feBlend mode="normal" in="SourceGraphic" in2="effect1_dropShadow_68_128" result="shape"/>
</filter>
</defs>
</svg>
