<svg width="110" height="128" viewBox="0 0 110 128" fill="none" xmlns="http://www.w3.org/2000/svg">
<path d="M82.7418 94.7625C70.7397 123.357 70.9215 125.72 65.2842 121.466C59.6468 117.212 57.4646 113.431 69.6486 85.0735C81.8325 56.7157 85.2877 56.952 90.925 61.2057C96.3805 65.223 94.7439 66.4046 82.7418 94.7625Z" fill="#454749"/>
<path d="M94.0164 103.27C86.3787 121.466 76.9225 130.21 72.3763 126.901C66.7389 122.648 69.6485 122.648 81.6506 94.0536C93.6527 65.4594 92.1979 62.151 97.8353 66.4047C102.382 69.7131 101.654 85.0736 94.0164 103.27Z" fill="#009393"/>
<path d="M26.3683 94.7625C38.3704 123.357 38.1885 125.72 43.8259 121.466C49.4632 117.212 51.6454 113.431 39.4615 85.0736C27.2775 56.7157 23.8224 56.952 18.185 61.2057C12.7295 65.2231 14.3662 66.4046 26.3683 94.7625Z" fill="#454749"/>
<path d="M18.7305 103.54C26.3682 121.737 35.8244 130.48 40.3707 127.172C46.008 122.918 43.0984 122.918 31.0963 94.3242C19.0942 65.73 20.549 62.4216 14.9117 66.6753C10.3654 69.9837 11.0928 85.3442 18.7305 103.54Z" fill="#009393"/>
<path d="M16.912 124.538C16.912 124.538 26.7319 127.847 27.4593 124.538C32.0056 105.397 6.72845 94.0535 6.72845 72.3125C6.72845 37.3378 28.1867 8.97999 54.555 8.97999C80.9232 8.97999 102.382 37.3378 102.382 72.3125C102.382 94.0535 77.1044 105.397 81.6506 124.538C82.378 127.847 92.1979 124.538 92.1979 124.538C102.563 111.305 109.11 92.872 109.11 72.3125C109.11 32.3752 84.7421 0 54.555 0C24.3679 0 0 32.3752 0 72.3125C0 92.872 6.5466 111.305 16.912 124.538Z" fill="#00AD97"/>
<path d="M23.4587 29.7757C29.8234 28.1215 38.0067 16.3058 54.555 16.3058C71.1034 16.3058 79.4685 28.3578 85.6514 29.7757C88.1973 30.4847 92.5617 25.2857 92.5617 25.2857C82.5599 10.3979 70.7397 2.83578 54.555 2.83578C38.3704 2.83578 26.5501 10.3979 16.5484 25.2857C16.5484 25.5221 20.9128 30.4847 23.4587 29.7757Z" fill="#454749"/>
</svg>
