<svg width="110" height="128" viewBox="0 0 110 128" fill="none" xmlns="http://www.w3.org/2000/svg">
<path d="M82.7381 94.7601C70.7365 123.354 70.9184 125.717 65.2813 121.463C59.6442 117.209 57.4621 113.429 69.6455 85.0714C81.8289 56.7143 85.2839 56.9506 90.921 61.2041C96.3762 65.2214 94.7397 66.4029 82.7381 94.7601Z" fill="#454749"/>
<path d="M94.0123 103.267C86.3749 121.463 76.9191 130.207 72.3731 126.898C66.736 122.645 69.6454 122.645 81.647 94.0512C93.6486 65.4577 92.1938 62.1494 97.8309 66.403C102.377 69.7113 101.65 85.0714 94.0123 103.267Z" fill="#258399"/>
<path d="M26.3671 94.7601C38.3687 123.354 38.1868 125.717 43.8239 121.463C49.461 117.209 51.6431 113.429 39.4597 85.0714C27.2763 56.7143 23.8213 56.9506 18.1842 61.2041C12.729 65.2214 14.3655 66.4029 26.3671 94.7601Z" fill="#454749"/>
<path d="M18.7297 103.538C26.3671 121.734 35.8229 130.477 40.3689 127.169C46.006 122.915 43.0965 122.915 31.095 94.3217C19.0934 65.7283 20.5481 62.4199 14.911 66.6735C10.365 69.9818 11.0924 85.342 18.7297 103.538Z" fill="#258399"/>
<path d="M16.9113 124.535C16.9113 124.535 26.7308 127.843 27.4581 124.535C32.0042 105.394 6.72815 94.0511 6.72815 72.3107C6.72815 37.3369 28.1855 8.97976 54.5526 8.97976C80.9197 8.97976 102.377 37.3369 102.377 72.3107C102.377 94.0511 77.101 105.394 81.647 124.535C82.3744 127.843 92.1939 124.535 92.1939 124.535C102.559 111.302 109.105 92.8696 109.105 72.3107C109.105 32.3744 84.7383 0 54.5526 0C24.3668 0 0 32.3744 0 72.3107C0 92.8696 6.54631 111.302 16.9113 124.535Z" fill="#3BAACF"/>
<path d="M23.4576 29.775C29.8221 28.1208 38.005 16.3053 54.5526 16.3053C71.1002 16.3053 79.4649 28.3571 85.6475 29.775C88.1933 30.4839 92.5575 25.2851 92.5575 25.2851C82.5562 10.3976 70.7365 2.83569 54.5526 2.83569C38.3686 2.83569 26.5489 10.3976 16.5476 25.2851C16.5476 25.5214 20.9118 30.4839 23.4576 29.775Z" fill="#454749"/>
</svg>
