<svg width="45" height="45" viewBox="0 0 45 45" fill="none" xmlns="http://www.w3.org/2000/svg">
<rect width="45" height="45" rx="10" fill="#E8FCFF"/>
<path d="M35.1692 28.9259C35.2378 29.1079 35.273 29.303 35.2727 29.5V31C35.2727 31.3978 35.1291 31.7794 34.8733 32.0607C34.6176 32.342 34.2708 32.5 33.9091 32.5H28.891H26.8427H19.1573H17.1091H12.0909C11.7293 32.5 11.3824 32.342 11.1267 32.0607C10.8709 31.7794 10.7273 31.3978 10.7273 31L35.1692 28.9259ZM35.1692 28.9259C35.1007 28.7438 35.0001 28.5786 34.8732 28.4395L35.1692 28.9259ZM25.2308 34H20.7692C20.9683 34.403 21.2437 34.7412 21.566 34.9929C21.9982 35.3303 22.4961 35.4991 22.9907 35.5H21.1701H19.9579C20.1612 35.7515 20.3907 35.9783 20.643 36.1752C21.3316 36.7129 22.1555 37.0012 23 37C23.8445 37.0012 24.6684 36.7129 25.357 36.1752C25.6093 35.9783 25.8388 35.7515 26.0421 35.5L25.2308 34ZM25.2308 34C25.0317 34.403 24.7563 34.7412 24.434 34.9929C24.0018 35.3303 23.5039 35.4991 23.0093 35.5M25.2308 34L23.0093 35.5M23.0093 35.5L23.0021 35.5C23.0045 35.5 23.0069 35.5 23.0093 35.5ZM31.0455 26.4589V25.879V19C31.0455 14.774 28.4416 11.3363 25.0947 10.3226L24.3742 10.1044L24.1186 9.39624C23.9012 8.7938 23.431 8.5 23 8.5C22.569 8.5 22.0988 8.79381 21.8814 9.39624L21.6258 10.1045L20.9051 10.3226C17.5572 11.3363 14.9545 14.7738 14.9545 19V25.879V26.4589L14.5645 26.888L12.2376 29.4475C12.2369 29.4488 12.2358 29.4511 12.2344 29.4547L10.8308 28.9259L12.2344 29.4547C12.2306 29.4648 12.2272 29.4799 12.2273 29.498L12.2273 29.5L12.2273 31M31.0455 26.4589L12.2273 31M31.0455 26.4589L31.4355 26.888M31.0455 26.4589L31.4355 26.888M12.2273 31H12.0909C12.1757 31 12.2245 31.0383 12.2366 31.0517C12.2385 31.0538 12.2393 31.0549 12.2393 31.0549C12.2393 31.0549 12.2373 31.052 12.2348 31.0454C12.2308 31.0347 12.2273 31.019 12.2273 31ZM31.4355 26.888L33.7624 29.4475L31.4355 26.888ZM33.7727 31C33.7727 31.019 33.7692 31.0347 33.7652 31.0454C33.7634 31.0502 33.7618 31.053 33.7611 31.0542C33.7602 31.0557 33.7607 31.0547 33.7634 31.0517C33.7755 31.0383 33.8243 31 33.9091 31H33.7727Z" stroke="#016170" stroke-width="3"/>
</svg>
