<svg width="22" height="22" viewBox="0 0 22 22" fill="none" xmlns="http://www.w3.org/2000/svg">
<path d="M20.7777 6.61841L13.4445 0.839321C12.7722 0.298817 11.9019 0 11 0C10.0981 0 9.22786 0.298817 8.55561 0.839321L1.22233 6.61841C0.834116 6.93051 0.524323 7.31339 0.313579 7.74153C0.102835 8.16967 -0.00402421 8.63327 0.000115859 9.10143V18.7039C0.000115859 19.5781 0.386422 20.4165 1.07405 21.0346C1.76168 21.6527 2.6943 22 3.66676 22H18.3333C19.3058 22 20.2384 21.6527 20.926 21.0346C21.6137 20.4165 22 19.5781 22 18.7039V9.09045C22.0024 8.62413 21.8947 8.16265 21.684 7.73652C21.4733 7.31038 21.1644 6.92929 20.7777 6.61841ZM13.4445 19.8026H8.55561V14.3092C8.55561 14.0178 8.68438 13.7384 8.91359 13.5323C9.1428 13.3263 9.45367 13.2105 9.77782 13.2105H12.2222C12.5464 13.2105 12.8573 13.3263 13.0865 13.5323C13.3157 13.7384 13.4445 14.0178 13.4445 14.3092V19.8026ZM19.5555 18.7039C19.5555 18.9953 19.4268 19.2748 19.1976 19.4808C18.9683 19.6869 18.6575 19.8026 18.3333 19.8026H15.8889V14.3092C15.8889 13.435 15.5026 12.5967 14.815 11.9785C14.1273 11.3604 13.1947 11.0131 12.2222 11.0131H9.77782C8.80537 11.0131 7.87275 11.3604 7.18512 11.9785C6.49749 12.5967 6.11118 13.435 6.11118 14.3092V19.8026H3.66676C3.34261 19.8026 3.03173 19.6869 2.80252 19.4808C2.57331 19.2748 2.44454 18.9953 2.44454 18.7039V9.09045C2.44476 8.93445 2.48193 8.78028 2.55359 8.63821C2.62524 8.49613 2.72972 8.36939 2.8601 8.26643L10.1934 2.49834C10.4164 2.3222 10.7032 2.22505 11 2.22505C11.2969 2.22505 11.5837 2.3222 11.8067 2.49834L19.14 8.26643C19.2704 8.36939 19.3748 8.49613 19.4465 8.63821C19.5181 8.78028 19.5553 8.93445 19.5555 9.09045V18.7039Z" fill="#111111"/>
</svg>
