<svg width="381" height="226" viewBox="0 0 381 226" fill="none" xmlns="http://www.w3.org/2000/svg">
<rect y="66" width="381" height="153" rx="14" fill="white"/>
<rect width="366" height="220" rx="14" fill="url(#paint0_linear_57_37)"/>
<path d="M32.705 177.645C33.265 177.745 33.74 178.04 34.13 178.53C34.52 179.02 34.715 179.575 34.715 180.195C34.715 180.725 34.575 181.205 34.295 181.635C34.025 182.055 33.63 182.39 33.11 182.64C32.59 182.88 31.985 183 31.295 183H27.125V172.575H31.1C31.81 172.575 32.42 172.695 32.93 172.935C33.44 173.175 33.825 173.5 34.085 173.91C34.345 174.31 34.475 174.76 34.475 175.26C34.475 175.86 34.315 176.36 33.995 176.76C33.675 177.16 33.245 177.455 32.705 177.645ZM28.835 176.955H30.95C31.51 176.955 31.945 176.83 32.255 176.58C32.575 176.32 32.735 175.95 32.735 175.47C32.735 175 32.575 174.635 32.255 174.375C31.945 174.105 31.51 173.97 30.95 173.97H28.835V176.955ZM31.145 181.605C31.725 181.605 32.18 181.465 32.51 181.185C32.84 180.905 33.005 180.515 33.005 180.015C33.005 179.505 32.83 179.1 32.48 178.8C32.13 178.5 31.665 178.35 31.085 178.35H28.835V181.605H31.145ZM44.0582 174.735V183H42.3482V182.025C42.0782 182.365 41.7232 182.635 41.2832 182.835C40.8532 183.025 40.3932 183.12 39.9032 183.12C39.2532 183.12 38.6682 182.985 38.1482 182.715C37.6382 182.445 37.2332 182.045 36.9332 181.515C36.6432 180.985 36.4982 180.345 36.4982 179.595V174.735H38.1932V179.34C38.1932 180.08 38.3782 180.65 38.7482 181.05C39.1182 181.44 39.6232 181.635 40.2632 181.635C40.9032 181.635 41.4082 181.44 41.7782 181.05C42.1582 180.65 42.3482 180.08 42.3482 179.34V174.735H44.0582ZM53.7545 174.735L48.6845 186.885H46.9145L48.5945 182.865L45.3395 174.735H47.2445L49.5695 181.035L51.9845 174.735H53.7545ZM59.8114 173.64C59.5014 173.64 59.2414 173.535 59.0314 173.325C58.8214 173.115 58.7164 172.855 58.7164 172.545C58.7164 172.235 58.8214 171.975 59.0314 171.765C59.2414 171.555 59.5014 171.45 59.8114 171.45C60.1114 171.45 60.3664 171.555 60.5764 171.765C60.7864 171.975 60.8914 172.235 60.8914 172.545C60.8914 172.855 60.7864 173.115 60.5764 173.325C60.3664 173.535 60.1114 173.64 59.8114 173.64ZM60.6514 174.735V183H58.9414V174.735H60.6514ZM64.8915 176.13V180.705C64.8915 181.015 64.9615 181.24 65.1015 181.38C65.2515 181.51 65.5015 181.575 65.8515 181.575H66.9015V183H65.5515C64.7815 183 64.1915 182.82 63.7815 182.46C63.3715 182.1 63.1665 181.515 63.1665 180.705V176.13H62.1915V174.735H63.1665V172.68H64.8915V174.735H66.9015V176.13H64.8915ZM76.544 174.6C77.194 174.6 77.774 174.735 78.284 175.005C78.804 175.275 79.209 175.675 79.499 176.205C79.789 176.735 79.934 177.375 79.934 178.125V183H78.239V178.38C78.239 177.64 78.054 177.075 77.684 176.685C77.314 176.285 76.809 176.085 76.169 176.085C75.529 176.085 75.019 176.285 74.639 176.685C74.269 177.075 74.084 177.64 74.084 178.38V183H72.374V174.735H74.084V175.68C74.364 175.34 74.719 175.075 75.149 174.885C75.589 174.695 76.054 174.6 76.544 174.6ZM85.7002 183.135C84.9202 183.135 84.2152 182.96 83.5852 182.61C82.9552 182.25 82.4602 181.75 82.1002 181.11C81.7402 180.46 81.5602 179.71 81.5602 178.86C81.5602 178.02 81.7452 177.275 82.1152 176.625C82.4852 175.975 82.9902 175.475 83.6302 175.125C84.2702 174.775 84.9852 174.6 85.7752 174.6C86.5652 174.6 87.2802 174.775 87.9202 175.125C88.5602 175.475 89.0652 175.975 89.4352 176.625C89.8052 177.275 89.9902 178.02 89.9902 178.86C89.9902 179.7 89.8002 180.445 89.4202 181.095C89.0402 181.745 88.5202 182.25 87.8602 182.61C87.2102 182.96 86.4902 183.135 85.7002 183.135ZM85.7002 181.65C86.1402 181.65 86.5502 181.545 86.9302 181.335C87.3202 181.125 87.6352 180.81 87.8752 180.39C88.1152 179.97 88.2352 179.46 88.2352 178.86C88.2352 178.26 88.1202 177.755 87.8902 177.345C87.6602 176.925 87.3552 176.61 86.9752 176.4C86.5952 176.19 86.1852 176.085 85.7452 176.085C85.3052 176.085 84.8952 176.19 84.5152 176.4C84.1452 176.61 83.8502 176.925 83.6302 177.345C83.4102 177.755 83.3002 178.26 83.3002 178.86C83.3002 179.75 83.5252 180.44 83.9752 180.93C84.4352 181.41 85.0102 181.65 85.7002 181.65ZM102.781 174.735L100.216 183H98.4157L96.7507 176.895L95.0857 183H93.2857L90.7057 174.735H92.4457L94.1707 181.38L95.9257 174.735H97.7107L99.3907 181.35L101.101 174.735H102.781Z" fill="#016170"/>
<mask id="mask0_57_37" style="mask-type:alpha" maskUnits="userSpaceOnUse" x="0" y="0" width="366" height="220">
<rect width="366" height="220" rx="14" fill="url(#paint1_linear_57_37)"/>
</mask>
<g mask="url(#mask0_57_37)">
<circle cx="320" cy="23" r="90" stroke="#A1D2FF" stroke-opacity="0.8" stroke-width="10"/>
</g>
<path d="M24.06 48.182C22.7947 48.182 21.6507 47.9653 20.628 47.532C19.6227 47.0987 18.8253 46.4747 18.236 45.66C17.6467 44.8453 17.3433 43.8833 17.326 42.774H21.226C21.278 43.5193 21.538 44.1087 22.006 44.542C22.4913 44.9753 23.15 45.192 23.982 45.192C24.8313 45.192 25.4987 44.9927 25.984 44.594C26.4693 44.178 26.712 43.6407 26.712 42.982C26.712 42.4447 26.5473 42.0027 26.218 41.656C25.8887 41.3093 25.4727 41.0407 24.97 40.85C24.4847 40.642 23.8087 40.4167 22.942 40.174C21.7633 39.8273 20.8013 39.4893 20.056 39.16C19.328 38.8133 18.6953 38.302 18.158 37.626C17.638 36.9327 17.378 36.014 17.378 34.87C17.378 33.7953 17.6467 32.8593 18.184 32.062C18.7213 31.2647 19.4753 30.658 20.446 30.242C21.4167 29.8087 22.526 29.592 23.774 29.592C25.646 29.592 27.1627 30.0513 28.324 30.97C29.5027 31.8713 30.1527 33.1367 30.274 34.766H26.27C26.2353 34.142 25.9667 33.6307 25.464 33.232C24.9787 32.816 24.3287 32.608 23.514 32.608C22.8033 32.608 22.2313 32.79 21.798 33.154C21.382 33.518 21.174 34.0467 21.174 34.74C21.174 35.2253 21.33 35.6327 21.642 35.962C21.9713 36.274 22.37 36.534 22.838 36.742C23.3233 36.9327 23.9993 37.158 24.866 37.418C26.0447 37.7647 27.0067 38.1113 27.752 38.458C28.4973 38.8047 29.1387 39.3247 29.676 40.018C30.2133 40.7113 30.482 41.6213 30.482 42.748C30.482 43.7187 30.2307 44.62 29.728 45.452C29.2253 46.284 28.4887 46.9513 27.518 47.454C26.5473 47.9393 25.3947 48.182 24.06 48.182ZM47.2358 33.596V48H43.5698V46.18C43.1018 46.804 42.4864 47.298 41.7238 47.662C40.9784 48.0087 40.1638 48.182 39.2798 48.182C38.1531 48.182 37.1564 47.948 36.2898 47.48C35.4231 46.9947 34.7384 46.2927 34.2358 45.374C33.7504 44.438 33.5078 43.3287 33.5078 42.046V33.596H37.1478V41.526C37.1478 42.67 37.4338 43.554 38.0058 44.178C38.5778 44.7847 39.3578 45.088 40.3458 45.088C41.3511 45.088 42.1398 44.7847 42.7118 44.178C43.2838 43.554 43.5698 42.67 43.5698 41.526V33.596H47.2358ZM68.7152 33.388C70.4832 33.388 71.9045 33.934 72.9792 35.026C74.0712 36.1007 74.6172 37.6087 74.6172 39.55V48H70.9772V40.044C70.9772 38.9173 70.6912 38.0593 70.1192 37.47C69.5472 36.8633 68.7672 36.56 67.7792 36.56C66.7912 36.56 66.0025 36.8633 65.4132 37.47C64.8412 38.0593 64.5552 38.9173 64.5552 40.044V48H60.9152V40.044C60.9152 38.9173 60.6292 38.0593 60.0572 37.47C59.4852 36.8633 58.7052 36.56 57.7172 36.56C56.7119 36.56 55.9145 36.8633 55.3252 37.47C54.7532 38.0593 54.4672 38.9173 54.4672 40.044V48H50.8272V33.596H54.4672V35.338C54.9352 34.7313 55.5332 34.2547 56.2612 33.908C57.0065 33.5613 57.8212 33.388 58.7052 33.388C59.8319 33.388 60.8372 33.6307 61.7212 34.116C62.6052 34.584 63.2899 35.26 63.7752 36.144C64.2432 35.312 64.9192 34.6447 65.8032 34.142C66.7045 33.6393 67.6752 33.388 68.7152 33.388ZM95.9593 33.388C97.7273 33.388 99.1487 33.934 100.223 35.026C101.315 36.1007 101.861 37.6087 101.861 39.55V48H98.2213V40.044C98.2213 38.9173 97.9353 38.0593 97.3633 37.47C96.7913 36.8633 96.0113 36.56 95.0233 36.56C94.0353 36.56 93.2467 36.8633 92.6573 37.47C92.0853 38.0593 91.7993 38.9173 91.7993 40.044V48H88.1593V40.044C88.1593 38.9173 87.8733 38.0593 87.3013 37.47C86.7293 36.8633 85.9493 36.56 84.9613 36.56C83.956 36.56 83.1587 36.8633 82.5693 37.47C81.9973 38.0593 81.7113 38.9173 81.7113 40.044V48H78.0713V33.596H81.7113V35.338C82.1793 34.7313 82.7773 34.2547 83.5053 33.908C84.2507 33.5613 85.0653 33.388 85.9493 33.388C87.076 33.388 88.0813 33.6307 88.9653 34.116C89.8493 34.584 90.534 35.26 91.0193 36.144C91.4873 35.312 92.1633 34.6447 93.0473 34.142C93.9487 33.6393 94.9193 33.388 95.9593 33.388ZM118.705 40.486C118.705 41.006 118.671 41.474 118.601 41.89H108.071C108.158 42.93 108.522 43.7447 109.163 44.334C109.805 44.9233 110.593 45.218 111.529 45.218C112.881 45.218 113.843 44.6373 114.415 43.476H118.341C117.925 44.8627 117.128 46.0067 115.949 46.908C114.771 47.792 113.323 48.234 111.607 48.234C110.221 48.234 108.973 47.9307 107.863 47.324C106.771 46.7 105.913 45.8247 105.289 44.698C104.683 43.5713 104.379 42.2713 104.379 40.798C104.379 39.3073 104.683 37.9987 105.289 36.872C105.896 35.7453 106.745 34.8787 107.837 34.272C108.929 33.6653 110.186 33.362 111.607 33.362C112.977 33.362 114.199 33.6567 115.273 34.246C116.365 34.8353 117.206 35.676 117.795 36.768C118.402 37.8427 118.705 39.082 118.705 40.486ZM114.935 39.446C114.918 38.51 114.58 37.7647 113.921 37.21C113.263 36.638 112.457 36.352 111.503 36.352C110.602 36.352 109.839 36.6293 109.215 37.184C108.609 37.7213 108.236 38.4753 108.097 39.446H114.935ZM125.002 35.832C125.47 35.0693 126.077 34.4713 126.822 34.038C127.585 33.6047 128.452 33.388 129.422 33.388V37.21H128.46C127.316 37.21 126.45 37.4787 125.86 38.016C125.288 38.5533 125.002 39.4893 125.002 40.824V48H121.362V33.596H125.002V35.832ZM153.123 29.852V48H149.483V40.278H141.709V48H138.069V29.852H141.709V37.314H149.483V29.852H153.123ZM170.096 40.486C170.096 41.006 170.061 41.474 169.992 41.89H159.462C159.549 42.93 159.913 43.7447 160.554 44.334C161.195 44.9233 161.984 45.218 162.92 45.218C164.272 45.218 165.234 44.6373 165.806 43.476H169.732C169.316 44.8627 168.519 46.0067 167.34 46.908C166.161 47.792 164.714 48.234 162.998 48.234C161.611 48.234 160.363 47.9307 159.254 47.324C158.162 46.7 157.304 45.8247 156.68 44.698C156.073 43.5713 155.77 42.2713 155.77 40.798C155.77 39.3073 156.073 37.9987 156.68 36.872C157.287 35.7453 158.136 34.8787 159.228 34.272C160.32 33.6653 161.577 33.362 162.998 33.362C164.367 33.362 165.589 33.6567 166.664 34.246C167.756 34.8353 168.597 35.676 169.186 36.768C169.793 37.8427 170.096 39.082 170.096 40.486ZM166.326 39.446C166.309 38.51 165.971 37.7647 165.312 37.21C164.653 36.638 163.847 36.352 162.894 36.352C161.993 36.352 161.23 36.6293 160.606 37.184C159.999 37.7213 159.627 38.4753 159.488 39.446H166.326ZM171.817 40.746C171.817 39.29 172.103 37.9987 172.675 36.872C173.264 35.7453 174.053 34.8787 175.041 34.272C176.046 33.6653 177.164 33.362 178.395 33.362C179.47 33.362 180.406 33.5787 181.203 34.012C182.018 34.4453 182.668 34.9913 183.153 35.65V33.596H186.819V48H183.153V45.894C182.685 46.57 182.035 47.1333 181.203 47.584C180.388 48.0173 179.444 48.234 178.369 48.234C177.156 48.234 176.046 47.922 175.041 47.298C174.053 46.674 173.264 45.7987 172.675 44.672C172.103 43.528 171.817 42.2193 171.817 40.746ZM183.153 40.798C183.153 39.914 182.98 39.16 182.633 38.536C182.286 37.8947 181.818 37.4093 181.229 37.08C180.64 36.7333 180.007 36.56 179.331 36.56C178.655 36.56 178.031 36.7247 177.459 37.054C176.887 37.3833 176.419 37.8687 176.055 38.51C175.708 39.134 175.535 39.8793 175.535 40.746C175.535 41.6127 175.708 42.3753 176.055 43.034C176.419 43.6753 176.887 44.1693 177.459 44.516C178.048 44.8627 178.672 45.036 179.331 45.036C180.007 45.036 180.64 44.8713 181.229 44.542C181.818 44.1953 182.286 43.71 182.633 43.086C182.98 42.4447 183.153 41.682 183.153 40.798ZM189.438 40.746C189.438 39.29 189.724 37.9987 190.296 36.872C190.885 35.7453 191.683 34.8787 192.688 34.272C193.693 33.6653 194.811 33.362 196.042 33.362C196.978 33.362 197.871 33.57 198.72 33.986C199.569 34.3847 200.245 34.922 200.748 35.598V28.76H204.44V48H200.748V45.868C200.297 46.5787 199.665 47.1507 198.85 47.584C198.035 48.0173 197.091 48.234 196.016 48.234C194.803 48.234 193.693 47.922 192.688 47.298C191.683 46.674 190.885 45.7987 190.296 44.672C189.724 43.528 189.438 42.2193 189.438 40.746ZM200.774 40.798C200.774 39.914 200.601 39.16 200.254 38.536C199.907 37.8947 199.439 37.4093 198.85 37.08C198.261 36.7333 197.628 36.56 196.952 36.56C196.276 36.56 195.652 36.7247 195.08 37.054C194.508 37.3833 194.04 37.8687 193.676 38.51C193.329 39.134 193.156 39.8793 193.156 40.746C193.156 41.6127 193.329 42.3753 193.676 43.034C194.04 43.6753 194.508 44.1693 195.08 44.516C195.669 44.8627 196.293 45.036 196.952 45.036C197.628 45.036 198.261 44.8713 198.85 44.542C199.439 44.1953 199.907 43.71 200.254 43.086C200.601 42.4447 200.774 41.682 200.774 40.798ZM211.635 35.676C212.103 35.0173 212.745 34.4713 213.559 34.038C214.391 33.5873 215.336 33.362 216.393 33.362C217.624 33.362 218.733 33.6653 219.721 34.272C220.727 34.8787 221.515 35.7453 222.087 36.872C222.677 37.9813 222.971 39.2727 222.971 40.746C222.971 42.2193 222.677 43.528 222.087 44.672C221.515 45.7987 220.727 46.674 219.721 47.298C218.733 47.922 217.624 48.234 216.393 48.234C215.336 48.234 214.4 48.0173 213.585 47.584C212.788 47.1507 212.138 46.6047 211.635 45.946V54.864H207.995V33.596H211.635V35.676ZM219.253 40.746C219.253 39.8793 219.071 39.134 218.707 38.51C218.361 37.8687 217.893 37.3833 217.303 37.054C216.731 36.7247 216.107 36.56 215.431 36.56C214.773 36.56 214.149 36.7333 213.559 37.08C212.987 37.4093 212.519 37.8947 212.155 38.536C211.809 39.1773 211.635 39.9313 211.635 40.798C211.635 41.6647 211.809 42.4187 212.155 43.06C212.519 43.7013 212.987 44.1953 213.559 44.542C214.149 44.8713 214.773 45.036 215.431 45.036C216.107 45.036 216.731 44.8627 217.303 44.516C217.893 44.1693 218.361 43.6753 218.707 43.034C219.071 42.3927 219.253 41.63 219.253 40.746ZM233.728 33.388C234.82 33.388 235.791 33.6307 236.64 34.116C237.49 34.584 238.148 35.286 238.616 36.222C239.102 37.1407 239.344 38.25 239.344 39.55V48H235.704V40.044C235.704 38.9 235.418 38.0247 234.846 37.418C234.274 36.794 233.494 36.482 232.506 36.482C231.501 36.482 230.704 36.794 230.114 37.418C229.542 38.0247 229.256 38.9 229.256 40.044V48H225.616V28.76H229.256V35.39C229.724 34.766 230.348 34.2807 231.128 33.934C231.908 33.57 232.775 33.388 233.728 33.388ZM249.202 48.234C247.815 48.234 246.567 47.9307 245.458 47.324C244.348 46.7 243.473 45.8247 242.832 44.698C242.208 43.5713 241.896 42.2713 241.896 40.798C241.896 39.3247 242.216 38.0247 242.858 36.898C243.516 35.7713 244.409 34.9047 245.536 34.298C246.662 33.674 247.919 33.362 249.306 33.362C250.692 33.362 251.949 33.674 253.076 34.298C254.202 34.9047 255.086 35.7713 255.728 36.898C256.386 38.0247 256.716 39.3247 256.716 40.798C256.716 42.2713 256.378 43.5713 255.702 44.698C255.043 45.8247 254.142 46.7 252.998 47.324C251.871 47.9307 250.606 48.234 249.202 48.234ZM249.202 45.062C249.86 45.062 250.476 44.906 251.048 44.594C251.637 44.2647 252.105 43.7793 252.452 43.138C252.798 42.4967 252.972 41.7167 252.972 40.798C252.972 39.4287 252.608 38.38 251.88 37.652C251.169 36.9067 250.294 36.534 249.254 36.534C248.214 36.534 247.338 36.9067 246.628 37.652C245.934 38.38 245.588 39.4287 245.588 40.798C245.588 42.1673 245.926 43.2247 246.602 43.97C247.295 44.698 248.162 45.062 249.202 45.062ZM267.368 33.388C269.084 33.388 270.47 33.934 271.528 35.026C272.585 36.1007 273.114 37.6087 273.114 39.55V48H269.474V40.044C269.474 38.9 269.188 38.0247 268.616 37.418C268.044 36.794 267.264 36.482 266.276 36.482C265.27 36.482 264.473 36.794 263.884 37.418C263.312 38.0247 263.026 38.9 263.026 40.044V48H259.386V33.596H263.026V35.39C263.511 34.766 264.126 34.2807 264.872 33.934C265.634 33.57 266.466 33.388 267.368 33.388ZM289.965 40.486C289.965 41.006 289.931 41.474 289.861 41.89H279.331C279.418 42.93 279.782 43.7447 280.423 44.334C281.065 44.9233 281.853 45.218 282.789 45.218C284.141 45.218 285.103 44.6373 285.675 43.476H289.601C289.185 44.8627 288.388 46.0067 287.209 46.908C286.031 47.792 284.583 48.234 282.867 48.234C281.481 48.234 280.233 47.9307 279.123 47.324C278.031 46.7 277.173 45.8247 276.549 44.698C275.943 43.5713 275.639 42.2713 275.639 40.798C275.639 39.3073 275.943 37.9987 276.549 36.872C277.156 35.7453 278.005 34.8787 279.097 34.272C280.189 33.6653 281.446 33.362 282.867 33.362C284.237 33.362 285.459 33.6567 286.533 34.246C287.625 34.8353 288.466 35.676 289.055 36.768C289.662 37.8427 289.965 39.082 289.965 40.486ZM286.195 39.446C286.178 38.51 285.84 37.7647 285.181 37.21C284.523 36.638 283.717 36.352 282.763 36.352C281.862 36.352 281.099 36.6293 280.475 37.184C279.869 37.7213 279.496 38.4753 279.357 39.446H286.195ZM298.134 48.234C296.955 48.234 295.898 48.026 294.962 47.61C294.026 47.1767 293.281 46.596 292.726 45.868C292.189 45.14 291.894 44.334 291.842 43.45H295.508C295.577 44.0047 295.846 44.464 296.314 44.828C296.799 45.192 297.397 45.374 298.108 45.374C298.801 45.374 299.339 45.2353 299.72 44.958C300.119 44.6807 300.318 44.3253 300.318 43.892C300.318 43.424 300.075 43.0773 299.59 42.852C299.122 42.6093 298.368 42.3493 297.328 42.072C296.253 41.812 295.369 41.5433 294.676 41.266C294 40.9887 293.411 40.564 292.908 39.992C292.423 39.42 292.18 38.6487 292.18 37.678C292.18 36.8807 292.405 36.1527 292.856 35.494C293.324 34.8353 293.983 34.3153 294.832 33.934C295.699 33.5527 296.713 33.362 297.874 33.362C299.59 33.362 300.959 33.7953 301.982 34.662C303.005 35.5113 303.568 36.664 303.672 38.12H300.188C300.136 37.548 299.893 37.0973 299.46 36.768C299.044 36.4213 298.481 36.248 297.77 36.248C297.111 36.248 296.6 36.3693 296.236 36.612C295.889 36.8547 295.716 37.1927 295.716 37.626C295.716 38.1113 295.959 38.484 296.444 38.744C296.929 38.9867 297.683 39.238 298.706 39.498C299.746 39.758 300.604 40.0267 301.28 40.304C301.956 40.5813 302.537 41.0147 303.022 41.604C303.525 42.176 303.785 42.9387 303.802 43.892C303.802 44.724 303.568 45.4693 303.1 46.128C302.649 46.7867 301.991 47.3067 301.124 47.688C300.275 48.052 299.278 48.234 298.134 48.234ZM24.398 75.586H21.876V87H18.184V75.586H16.546V72.596H18.184V71.868C18.184 70.1 18.6867 68.8 19.692 67.968C20.6973 67.136 22.214 66.746 24.242 66.798V69.866C23.358 69.8487 22.7427 69.996 22.396 70.308C22.0493 70.62 21.876 71.1833 21.876 71.998V72.596H24.398V75.586ZM30.3969 74.832C30.8649 74.0693 31.4716 73.4713 32.2169 73.038C32.9796 72.6047 33.8462 72.388 34.8169 72.388V76.21H33.8549C32.7109 76.21 31.8442 76.4787 31.2549 77.016C30.6829 77.5533 30.3969 78.4893 30.3969 79.824V87H26.7569V72.596H30.3969V74.832ZM43.6646 87.234C42.2779 87.234 41.0299 86.9307 39.9206 86.324C38.8113 85.7 37.9359 84.8247 37.2946 83.698C36.6706 82.5713 36.3586 81.2713 36.3586 79.798C36.3586 78.3247 36.6793 77.0247 37.3206 75.898C37.9793 74.7713 38.8719 73.9047 39.9986 73.298C41.1253 72.674 42.3819 72.362 43.7686 72.362C45.1553 72.362 46.4119 72.674 47.5386 73.298C48.6653 73.9047 49.5493 74.7713 50.1906 75.898C50.8493 77.0247 51.1786 78.3247 51.1786 79.798C51.1786 81.2713 50.8406 82.5713 50.1646 83.698C49.5059 84.8247 48.6046 85.7 47.4606 86.324C46.3339 86.9307 45.0686 87.234 43.6646 87.234ZM43.6646 84.062C44.3233 84.062 44.9386 83.906 45.5106 83.594C46.0999 83.2647 46.5679 82.7793 46.9146 82.138C47.2613 81.4967 47.4346 80.7167 47.4346 79.798C47.4346 78.4287 47.0706 77.38 46.3426 76.652C45.6319 75.9067 44.7566 75.534 43.7166 75.534C42.6766 75.534 41.8013 75.9067 41.0906 76.652C40.3973 77.38 40.0506 78.4287 40.0506 79.798C40.0506 81.1673 40.3886 82.2247 41.0646 82.97C41.7579 83.698 42.6246 84.062 43.6646 84.062ZM71.7367 72.388C73.5047 72.388 74.926 72.934 76.0007 74.026C77.0927 75.1007 77.6387 76.6087 77.6387 78.55V87H73.9987V79.044C73.9987 77.9173 73.7127 77.0593 73.1407 76.47C72.5687 75.8633 71.7887 75.56 70.8007 75.56C69.8127 75.56 69.024 75.8633 68.4347 76.47C67.8627 77.0593 67.5767 77.9173 67.5767 79.044V87H63.9367V79.044C63.9367 77.9173 63.6507 77.0593 63.0787 76.47C62.5067 75.8633 61.7267 75.56 60.7387 75.56C59.7334 75.56 58.936 75.8633 58.3467 76.47C57.7747 77.0593 57.4887 77.9173 57.4887 79.044V87H53.8487V72.596H57.4887V74.338C57.9567 73.7313 58.5547 73.2547 59.2827 72.908C60.028 72.5613 60.8427 72.388 61.7267 72.388C62.8534 72.388 63.8587 72.6307 64.7427 73.116C65.6267 73.584 66.3114 74.26 66.7967 75.144C67.2647 74.312 67.9407 73.6447 68.8247 73.142C69.726 72.6393 70.6967 72.388 71.7367 72.388ZM91.5261 75.586V82.554C91.5261 83.0393 91.6388 83.3947 91.8641 83.62C92.1068 83.828 92.5055 83.932 93.0601 83.932H94.7501V87H92.4621C89.3941 87 87.8601 85.5093 87.8601 82.528V75.586H86.1441V72.596H87.8601V69.034H91.5261V72.596H94.7501V75.586H91.5261ZM103.764 87.234C102.378 87.234 101.13 86.9307 100.02 86.324C98.9109 85.7 98.0356 84.8247 97.3942 83.698C96.7702 82.5713 96.4582 81.2713 96.4582 79.798C96.4582 78.3247 96.7789 77.0247 97.4202 75.898C98.0789 74.7713 98.9716 73.9047 100.098 73.298C101.225 72.674 102.482 72.362 103.868 72.362C105.255 72.362 106.512 72.674 107.638 73.298C108.765 73.9047 109.649 74.7713 110.29 75.898C110.949 77.0247 111.278 78.3247 111.278 79.798C111.278 81.2713 110.94 82.5713 110.264 83.698C109.606 84.8247 108.704 85.7 107.56 86.324C106.434 86.9307 105.168 87.234 103.764 87.234ZM103.764 84.062C104.423 84.062 105.038 83.906 105.61 83.594C106.2 83.2647 106.668 82.7793 107.014 82.138C107.361 81.4967 107.534 80.7167 107.534 79.798C107.534 78.4287 107.17 77.38 106.442 76.652C105.732 75.9067 104.856 75.534 103.816 75.534C102.776 75.534 101.901 75.9067 101.19 76.652C100.497 77.38 100.15 78.4287 100.15 79.798C100.15 81.1673 100.488 82.2247 101.164 82.97C101.858 83.698 102.724 84.062 103.764 84.062ZM117.588 74.676C118.056 74.0173 118.698 73.4713 119.512 73.038C120.344 72.5873 121.289 72.362 122.346 72.362C123.577 72.362 124.686 72.6653 125.674 73.272C126.68 73.8787 127.468 74.7453 128.04 75.872C128.63 76.9813 128.924 78.2727 128.924 79.746C128.924 81.2193 128.63 82.528 128.04 83.672C127.468 84.7987 126.68 85.674 125.674 86.298C124.686 86.922 123.577 87.234 122.346 87.234C121.289 87.234 120.353 87.0173 119.538 86.584C118.741 86.1507 118.091 85.6047 117.588 84.946V93.864H113.948V72.596H117.588V74.676ZM125.206 79.746C125.206 78.8793 125.024 78.134 124.66 77.51C124.314 76.8687 123.846 76.3833 123.256 76.054C122.684 75.7247 122.06 75.56 121.384 75.56C120.726 75.56 120.102 75.7333 119.512 76.08C118.94 76.4093 118.472 76.8947 118.108 77.536C117.762 78.1773 117.588 78.9313 117.588 79.798C117.588 80.6647 117.762 81.4187 118.108 82.06C118.472 82.7013 118.94 83.1953 119.512 83.542C120.102 83.8713 120.726 84.036 121.384 84.036C122.06 84.036 122.684 83.8627 123.256 83.516C123.846 83.1693 124.314 82.6753 124.66 82.034C125.024 81.3927 125.206 80.63 125.206 79.746ZM141.405 74.702C141.873 74.0087 142.514 73.4453 143.329 73.012C144.161 72.5787 145.105 72.362 146.163 72.362C147.393 72.362 148.503 72.6653 149.491 73.272C150.496 73.8787 151.285 74.7453 151.857 75.872C152.446 76.9813 152.741 78.2727 152.741 79.746C152.741 81.2193 152.446 82.528 151.857 83.672C151.285 84.7987 150.496 85.674 149.491 86.298C148.503 86.922 147.393 87.234 146.163 87.234C145.088 87.234 144.143 87.026 143.329 86.61C142.531 86.1767 141.89 85.622 141.405 84.946V87H137.765V67.76H141.405V74.702ZM149.023 79.746C149.023 78.8793 148.841 78.134 148.477 77.51C148.13 76.8687 147.662 76.3833 147.073 76.054C146.501 75.7247 145.877 75.56 145.201 75.56C144.542 75.56 143.918 75.7333 143.329 76.08C142.757 76.4093 142.289 76.8947 141.925 77.536C141.578 78.1773 141.405 78.9313 141.405 79.798C141.405 80.6647 141.578 81.4187 141.925 82.06C142.289 82.7013 142.757 83.1953 143.329 83.542C143.918 83.8713 144.542 84.036 145.201 84.036C145.877 84.036 146.501 83.8627 147.073 83.516C147.662 83.1693 148.13 82.6753 148.477 82.034C148.841 81.3927 149.023 80.63 149.023 79.746ZM159.026 74.832C159.494 74.0693 160.1 73.4713 160.846 73.038C161.608 72.6047 162.475 72.388 163.446 72.388V76.21H162.484C161.34 76.21 160.473 76.4787 159.884 77.016C159.312 77.5533 159.026 78.4893 159.026 79.824V87H155.386V72.596H159.026V74.832ZM164.962 79.746C164.962 78.29 165.248 76.9987 165.82 75.872C166.409 74.7453 167.198 73.8787 168.186 73.272C169.191 72.6653 170.309 72.362 171.54 72.362C172.614 72.362 173.55 72.5787 174.348 73.012C175.162 73.4453 175.812 73.9913 176.298 74.65V72.596H179.964V87H176.298V84.894C175.83 85.57 175.18 86.1333 174.348 86.584C173.533 87.0173 172.588 87.234 171.514 87.234C170.3 87.234 169.191 86.922 168.186 86.298C167.198 85.674 166.409 84.7987 165.82 83.672C165.248 82.528 164.962 81.2193 164.962 79.746ZM176.298 79.798C176.298 78.914 176.124 78.16 175.778 77.536C175.431 76.8947 174.963 76.4093 174.374 76.08C173.784 75.7333 173.152 75.56 172.476 75.56C171.8 75.56 171.176 75.7247 170.604 76.054C170.032 76.3833 169.564 76.8687 169.2 77.51C168.853 78.134 168.68 78.8793 168.68 79.746C168.68 80.6127 168.853 81.3753 169.2 82.034C169.564 82.6753 170.032 83.1693 170.604 83.516C171.193 83.8627 171.817 84.036 172.476 84.036C173.152 84.036 173.784 83.8713 174.374 83.542C174.963 83.1953 175.431 82.71 175.778 82.086C176.124 81.4447 176.298 80.682 176.298 79.798ZM191.501 72.388C193.217 72.388 194.603 72.934 195.661 74.026C196.718 75.1007 197.247 76.6087 197.247 78.55V87H193.607V79.044C193.607 77.9 193.321 77.0247 192.749 76.418C192.177 75.794 191.397 75.482 190.409 75.482C189.403 75.482 188.606 75.794 188.017 76.418C187.445 77.0247 187.159 77.9 187.159 79.044V87H183.519V72.596H187.159V74.39C187.644 73.766 188.259 73.2807 189.005 72.934C189.767 72.57 190.599 72.388 191.501 72.388ZM199.772 79.746C199.772 78.29 200.058 76.9987 200.63 75.872C201.219 74.7453 202.017 73.8787 203.022 73.272C204.027 72.6653 205.145 72.362 206.376 72.362C207.312 72.362 208.205 72.57 209.054 72.986C209.903 73.3847 210.579 73.922 211.082 74.598V67.76H214.774V87H211.082V84.868C210.631 85.5787 209.999 86.1507 209.184 86.584C208.369 87.0173 207.425 87.234 206.35 87.234C205.137 87.234 204.027 86.922 203.022 86.298C202.017 85.674 201.219 84.7987 200.63 83.672C200.058 82.528 199.772 81.2193 199.772 79.746ZM211.108 79.798C211.108 78.914 210.935 78.16 210.588 77.536C210.241 76.8947 209.773 76.4093 209.184 76.08C208.595 75.7333 207.962 75.56 207.286 75.56C206.61 75.56 205.986 75.7247 205.414 76.054C204.842 76.3833 204.374 76.8687 204.01 77.51C203.663 78.134 203.49 78.8793 203.49 79.746C203.49 80.6127 203.663 81.3753 204.01 82.034C204.374 82.6753 204.842 83.1693 205.414 83.516C206.003 83.8627 206.627 84.036 207.286 84.036C207.962 84.036 208.595 83.8713 209.184 83.542C209.773 83.1953 210.241 82.71 210.588 82.086C210.935 81.4447 211.108 80.682 211.108 79.798ZM223.841 87.234C222.662 87.234 221.605 87.026 220.669 86.61C219.733 86.1767 218.988 85.596 218.433 84.868C217.896 84.14 217.601 83.334 217.549 82.45H221.215C221.284 83.0047 221.553 83.464 222.021 83.828C222.506 84.192 223.104 84.374 223.815 84.374C224.508 84.374 225.046 84.2353 225.427 83.958C225.826 83.6807 226.025 83.3253 226.025 82.892C226.025 82.424 225.782 82.0773 225.297 81.852C224.829 81.6093 224.075 81.3493 223.035 81.072C221.96 80.812 221.076 80.5433 220.383 80.266C219.707 79.9887 219.118 79.564 218.615 78.992C218.13 78.42 217.887 77.6487 217.887 76.678C217.887 75.8807 218.112 75.1527 218.563 74.494C219.031 73.8353 219.69 73.3153 220.539 72.934C221.406 72.5527 222.42 72.362 223.581 72.362C225.297 72.362 226.666 72.7953 227.689 73.662C228.712 74.5113 229.275 75.664 229.379 77.12H225.895C225.843 76.548 225.6 76.0973 225.167 75.768C224.751 75.4213 224.188 75.248 223.477 75.248C222.818 75.248 222.307 75.3693 221.943 75.612C221.596 75.8547 221.423 76.1927 221.423 76.626C221.423 77.1113 221.666 77.484 222.151 77.744C222.636 77.9867 223.39 78.238 224.413 78.498C225.453 78.758 226.311 79.0267 226.987 79.304C227.663 79.5813 228.244 80.0147 228.729 80.604C229.232 81.176 229.492 81.9387 229.509 82.892C229.509 83.724 229.275 84.4693 228.807 85.128C228.356 85.7867 227.698 86.3067 226.831 86.688C225.982 87.052 224.985 87.234 223.841 87.234Z" fill="#016170" fill-opacity="0.9"/>
<path d="M115 176.92V178.92H127L121.5 184.42L122.92 185.84L130.84 177.92L122.92 170L121.5 171.42L127 176.92H115Z" fill="#016170"/>
<path d="M268.558 181.909C257.888 209.34 258.05 211.607 253.038 207.526C248.027 203.445 246.087 199.818 256.918 172.614C267.75 145.409 270.822 145.636 275.833 149.716C280.683 153.57 279.228 154.704 268.558 181.909Z" fill="#454749"/>
<path d="M278.582 190.07C271.792 207.526 263.385 215.914 259.343 212.74C254.332 208.66 256.918 208.66 267.588 181.228C278.258 153.797 276.965 150.623 281.977 154.704C286.018 157.878 285.372 172.614 278.582 190.07Z" fill="#C61313"/>
<path d="M218.442 181.909C229.112 209.34 228.95 211.607 233.962 207.526C238.973 203.445 240.913 199.818 230.082 172.614C219.25 145.409 216.178 145.636 211.167 149.716C206.317 153.57 207.772 154.704 218.442 181.909Z" fill="#454749"/>
<path d="M211.652 190.33C218.442 207.786 226.848 216.174 230.89 213C235.902 208.919 233.315 208.919 222.645 181.488C211.975 154.057 213.268 150.883 208.257 154.964C204.215 158.137 204.862 172.873 211.652 190.33Z" fill="#C61313"/>
<path d="M210.035 210.473C210.035 210.473 218.765 213.647 219.412 210.473C223.453 192.11 200.982 181.228 200.982 160.372C200.982 126.819 220.058 99.6148 243.5 99.6148C266.942 99.6148 286.018 126.819 286.018 160.372C286.018 181.228 263.547 192.11 267.588 210.473C268.235 213.647 276.965 210.473 276.965 210.473C286.18 197.778 292 180.095 292 160.372C292 122.059 270.337 91 243.5 91C216.663 91 195 122.059 195 160.372C195 180.095 200.82 197.778 210.035 210.473Z" fill="#AD0015"/>
<path d="M215.855 119.565C221.513 117.978 228.788 106.643 243.5 106.643C258.212 106.643 265.648 118.205 271.145 119.565C273.408 120.245 277.288 115.257 277.288 115.257C268.397 100.975 257.888 93.7204 243.5 93.7204C229.112 93.7204 218.603 100.975 209.712 115.257C209.712 115.484 213.592 120.245 215.855 119.565Z" fill="#454749"/>
<path d="M332.833 167.643C321.833 195.597 322 197.908 316.833 193.749C311.667 189.591 309.667 185.894 320.833 158.171C332 130.447 335.167 130.678 340.333 134.837C345.333 138.764 343.833 139.919 332.833 167.643Z" fill="#E27373"/>
<path d="M343.167 175.96C336.167 193.749 327.5 202.297 323.333 199.063C318.167 194.904 320.833 194.904 331.833 166.95C342.833 138.995 341.5 135.761 346.667 139.919C350.833 143.154 350.167 158.171 343.167 175.96Z" fill="#BFECFF"/>
<path d="M281.167 167.643C292.167 195.597 292 197.908 297.167 193.749C302.333 189.591 304.333 185.894 293.167 158.171C282 130.447 278.833 130.678 273.667 134.837C268.667 138.764 270.167 139.919 281.167 167.643Z" fill="#E27373"/>
<path d="M274.167 176.224C281.167 194.014 289.833 202.562 294 199.327C299.167 195.169 296.5 195.169 285.5 167.214C274.5 139.26 275.833 136.025 270.667 140.184C266.5 143.418 267.167 158.435 274.167 176.224Z" fill="#BFECFF"/>
<path d="M272.5 196.753C272.5 196.753 281.5 199.987 282.167 196.753C286.333 178.039 263.167 166.95 263.167 145.695C263.167 111.503 282.833 83.7791 307 83.7791C331.167 83.7791 350.833 111.503 350.833 145.695C350.833 166.95 327.667 178.039 331.833 196.753C332.5 199.987 341.5 196.753 341.5 196.753C351 183.815 357 165.795 357 145.695C357 106.651 334.667 75 307 75C279.333 75 257 106.651 257 145.695C257 165.795 263 183.815 272.5 196.753Z" fill="#00AD97" fill-opacity="0.68"/>
<path d="M278.5 104.11C284.333 102.492 291.833 90.941 307 90.941C322.167 90.941 329.833 102.724 335.5 104.11C337.833 104.803 341.833 99.7201 341.833 99.7201C332.667 85.1653 321.833 77.7723 307 77.7723C292.167 77.7723 281.333 85.1653 272.167 99.7201C272.167 99.9512 276.167 104.803 278.5 104.11Z" fill="#E27373"/>
<g filter="url(#filter0_f_57_37)">
<ellipse cx="265.388" cy="207.426" rx="16.235" ry="6" transform="rotate(-1.51031 265.388 207.426)" fill="#4B4B4B" fill-opacity="0.7"/>
</g>
<g filter="url(#filter1_f_57_37)">
<ellipse cx="231.091" cy="207.051" rx="16.2328" ry="6" transform="rotate(-11.2492 231.091 207.051)" fill="#4B4B4B" fill-opacity="0.7"/>
</g>
<g filter="url(#filter2_f_57_37)">
<ellipse cx="327.388" cy="194.426" rx="16.235" ry="6" transform="rotate(-1.51031 327.388 194.426)" fill="#4B4B4B" fill-opacity="0.7"/>
</g>
<g filter="url(#filter3_f_57_37)">
<ellipse cx="293.091" cy="194.051" rx="16.2328" ry="6" transform="rotate(-11.2492 293.091 194.051)" fill="#4B4B4B" fill-opacity="0.7"/>
</g>
<defs>
<filter id="filter0_f_57_37" x="237.157" y="189.412" width="56.4603" height="36.0268" filterUnits="userSpaceOnUse" color-interpolation-filters="sRGB">
<feFlood flood-opacity="0" result="BackgroundImageFix"/>
<feBlend mode="normal" in="SourceGraphic" in2="BackgroundImageFix" result="shape"/>
<feGaussianBlur stdDeviation="6" result="effect1_foregroundBlur_57_37"/>
</filter>
<filter id="filter1_f_57_37" x="203.127" y="188.367" width="55.9293" height="37.3679" filterUnits="userSpaceOnUse" color-interpolation-filters="sRGB">
<feFlood flood-opacity="0" result="BackgroundImageFix"/>
<feBlend mode="normal" in="SourceGraphic" in2="BackgroundImageFix" result="shape"/>
<feGaussianBlur stdDeviation="6" result="effect1_foregroundBlur_57_37"/>
</filter>
<filter id="filter2_f_57_37" x="299.157" y="176.412" width="56.4603" height="36.0268" filterUnits="userSpaceOnUse" color-interpolation-filters="sRGB">
<feFlood flood-opacity="0" result="BackgroundImageFix"/>
<feBlend mode="normal" in="SourceGraphic" in2="BackgroundImageFix" result="shape"/>
<feGaussianBlur stdDeviation="6" result="effect1_foregroundBlur_57_37"/>
</filter>
<filter id="filter3_f_57_37" x="265.127" y="175.367" width="55.9293" height="37.3679" filterUnits="userSpaceOnUse" color-interpolation-filters="sRGB">
<feFlood flood-opacity="0" result="BackgroundImageFix"/>
<feBlend mode="normal" in="SourceGraphic" in2="BackgroundImageFix" result="shape"/>
<feGaussianBlur stdDeviation="6" result="effect1_foregroundBlur_57_37"/>
</filter>
<linearGradient id="paint0_linear_57_37" x1="6.31181e-06" y1="9.9099" x2="364.328" y2="222.86" gradientUnits="userSpaceOnUse">
<stop offset="0.0225225" stop-color="#A1D2FF"/>
<stop offset="1" stop-color="#00E0C6" stop-opacity="0.9"/>
</linearGradient>
<linearGradient id="paint1_linear_57_37" x1="6.31181e-06" y1="9.9099" x2="364.328" y2="222.86" gradientUnits="userSpaceOnUse">
<stop offset="0.0225225" stop-color="#A1D2FF"/>
<stop offset="1" stop-color="#00E0C6" stop-opacity="0.9"/>
</linearGradient>
</defs>
</svg>
