<svg width="45" height="45" viewBox="0 0 45 45" fill="none" xmlns="http://www.w3.org/2000/svg">
<rect width="45" height="45" rx="10" fill="#E8FCFF"/>
<path d="M11.75 10.5H34.25C35.2964 10.5 36.5 11.5576 36.5 13.3333V30.6667C36.5 32.4424 35.2964 33.5 34.25 33.5H11.75C10.7036 33.5 9.5 32.4424 9.5 30.6667V13.3333C9.5 11.5576 10.7036 10.5 11.75 10.5Z" stroke="#016170" stroke-width="3"/>
<path d="M37.7186 15.9566L37.7182 15.9572L37.7186 15.9566ZM37.7186 15.9566L37.7198 15.9549L37.7186 15.9566ZM26.2669 24.0115L36.5 18.099V30.6667C36.5 31.4825 36.2176 32.229 35.7674 32.7492C35.3231 33.2626 34.771 33.5 34.25 33.5H11.75C11.229 33.5 10.6769 33.2626 10.2326 32.7492C9.78241 32.229 9.5 31.4825 9.5 30.6667V18.0999L19.7331 24.0115C19.7332 24.0115 19.7333 24.0116 19.7333 24.0116C19.7334 24.0116 19.7334 24.0117 19.7334 24.0117C20.7349 24.5904 21.8541 24.8994 23 24.8994C24.1459 24.8994 25.2652 24.5904 26.2667 24.0116C26.2667 24.0116 26.2668 24.0116 26.2669 24.0115Z" stroke="#016170" stroke-width="3"/>
</svg>
