<svg width="243" height="253" viewBox="0 0 243 253" fill="none" xmlns="http://www.w3.org/2000/svg">
<rect x="1" width="239" height="250" rx="13" fill="#A1D2FF"/>
<path d="M19.2913 247.991C56.8374 202.384 40.1502 174.512 27.1134 166.278C37.8327 158.017 52.061 155.219 66.9169 155.601C-36.6931 99.8928 12.6923 13.2148 6.13601 0C85.1986 85.4402 129.048 142.771 144.041 180.622C144.981 181.616 145.306 182.402 144.919 182.904C166.841 241.681 116.514 251.905 19.2913 247.991Z" fill="#BFECFF"/>
<path d="M218.263 2.36142C181.573 48.6604 198.776 76.2163 211.964 84.2069C201.401 92.6654 187.227 95.7282 172.366 95.6232C276.996 149.392 229.233 236.975 236.034 250.066C155.394 166.112 110.485 109.608 94.7898 72.0426C93.8311 71.0663 93.4915 70.2859 93.8693 69.7765C70.857 11.4183 120.985 0.258898 218.263 2.36142Z" fill="#BFECFF"/>
<g filter="url(#filter0_d_11_92)">
<circle cx="118" cy="55" r="20.5" fill="#00E0C6" stroke="white" stroke-width="5"/>
<path d="M118 64V46" stroke="white" stroke-width="4" stroke-linecap="round"/>
<path d="M118 64V46" stroke="white" stroke-width="4" stroke-linecap="round"/>
<path d="M109 55H127" stroke="white" stroke-width="4" stroke-linecap="round"/>
<path d="M109 55H127" stroke="white" stroke-width="4" stroke-linecap="round"/>
</g>
<path d="M93.324 101H91.364L86.926 94.294V101H84.966V91.214H86.926L91.364 97.934V91.214H93.324V101ZM102.471 96.954C102.471 97.234 102.452 97.486 102.415 97.71H96.7449C96.7916 98.27 96.9876 98.7087 97.3329 99.026C97.6783 99.3433 98.1029 99.502 98.6069 99.502C99.3349 99.502 99.8529 99.1893 100.161 98.564H102.275C102.051 99.3107 101.622 99.9267 100.987 100.412C100.352 100.888 99.5729 101.126 98.6489 101.126C97.9023 101.126 97.2303 100.963 96.6329 100.636C96.0449 100.3 95.5829 99.8287 95.2469 99.222C94.9203 98.6153 94.7569 97.9153 94.7569 97.122C94.7569 96.3193 94.9203 95.6147 95.2469 95.008C95.5736 94.4013 96.0309 93.9347 96.6189 93.608C97.2069 93.2813 97.8836 93.118 98.6489 93.118C99.3863 93.118 100.044 93.2767 100.623 93.594C101.211 93.9113 101.664 94.364 101.981 94.952C102.308 95.5307 102.471 96.198 102.471 96.954ZM100.441 96.394C100.432 95.89 100.25 95.4887 99.8949 95.19C99.5403 94.882 99.1063 94.728 98.5929 94.728C98.1076 94.728 97.6969 94.8773 97.3609 95.176C97.0343 95.4653 96.8336 95.8713 96.7589 96.394H100.441ZM111.112 96.954C111.112 97.234 111.093 97.486 111.056 97.71H105.386C105.432 98.27 105.628 98.7087 105.974 99.026C106.319 99.3433 106.744 99.502 107.248 99.502C107.976 99.502 108.494 99.1893 108.802 98.564H110.916C110.692 99.3107 110.262 99.9267 109.628 100.412C108.993 100.888 108.214 101.126 107.29 101.126C106.543 101.126 105.871 100.963 105.274 100.636C104.686 100.3 104.224 99.8287 103.888 99.222C103.561 98.6153 103.398 97.9153 103.398 97.122C103.398 96.3193 103.561 95.6147 103.888 95.008C104.214 94.4013 104.672 93.9347 105.26 93.608C105.848 93.2813 106.524 93.118 107.29 93.118C108.027 93.118 108.685 93.2767 109.264 93.594C109.852 93.9113 110.304 94.364 110.622 94.952C110.948 95.5307 111.112 96.198 111.112 96.954ZM109.082 96.394C109.072 95.89 108.89 95.4887 108.536 95.19C108.181 94.882 107.747 94.728 107.234 94.728C106.748 94.728 106.338 94.8773 106.002 95.176C105.675 95.4653 105.474 95.8713 105.4 96.394H109.082ZM112.038 97.094C112.038 96.31 112.192 95.6147 112.5 95.008C112.818 94.4013 113.247 93.9347 113.788 93.608C114.33 93.2813 114.932 93.118 115.594 93.118C116.098 93.118 116.579 93.23 117.036 93.454C117.494 93.6687 117.858 93.958 118.128 94.322V90.64H120.116V101H118.128V99.852C117.886 100.235 117.545 100.543 117.106 100.776C116.668 101.009 116.159 101.126 115.58 101.126C114.927 101.126 114.33 100.958 113.788 100.622C113.247 100.286 112.818 99.8147 112.5 99.208C112.192 98.592 112.038 97.8873 112.038 97.094ZM118.142 97.122C118.142 96.646 118.049 96.24 117.862 95.904C117.676 95.5587 117.424 95.2973 117.106 95.12C116.789 94.9333 116.448 94.84 116.084 94.84C115.72 94.84 115.384 94.9287 115.076 95.106C114.768 95.2833 114.516 95.5447 114.32 95.89C114.134 96.226 114.04 96.6273 114.04 97.094C114.04 97.5607 114.134 97.9713 114.32 98.326C114.516 98.6713 114.768 98.9373 115.076 99.124C115.394 99.3107 115.73 99.404 116.084 99.404C116.448 99.404 116.789 99.3153 117.106 99.138C117.424 98.9513 117.676 98.69 117.862 98.354C118.049 98.0087 118.142 97.598 118.142 97.122ZM133.472 91.228V101H131.512V96.842H127.326V101H125.366V91.228H127.326V95.246H131.512V91.228H133.472ZM142.612 96.954C142.612 97.234 142.593 97.486 142.556 97.71H136.886C136.932 98.27 137.128 98.7087 137.474 99.026C137.819 99.3433 138.244 99.502 138.748 99.502C139.476 99.502 139.994 99.1893 140.302 98.564H142.416C142.192 99.3107 141.762 99.9267 141.128 100.412C140.493 100.888 139.714 101.126 138.79 101.126C138.043 101.126 137.371 100.963 136.774 100.636C136.186 100.3 135.724 99.8287 135.388 99.222C135.061 98.6153 134.898 97.9153 134.898 97.122C134.898 96.3193 135.061 95.6147 135.388 95.008C135.714 94.4013 136.172 93.9347 136.76 93.608C137.348 93.2813 138.024 93.118 138.79 93.118C139.527 93.118 140.185 93.2767 140.764 93.594C141.352 93.9113 141.804 94.364 142.122 94.952C142.448 95.5307 142.612 96.198 142.612 96.954ZM140.582 96.394C140.572 95.89 140.39 95.4887 140.036 95.19C139.681 94.882 139.247 94.728 138.734 94.728C138.248 94.728 137.838 94.8773 137.502 95.176C137.175 95.4653 136.974 95.8713 136.9 96.394H140.582ZM146.002 90.64V101H144.042V90.64H146.002ZM149.899 94.364C150.151 94.0093 150.496 93.7153 150.935 93.482C151.383 93.2393 151.891 93.118 152.461 93.118C153.123 93.118 153.721 93.2813 154.253 93.608C154.794 93.9347 155.219 94.4013 155.527 95.008C155.844 95.6053 156.003 96.3007 156.003 97.094C156.003 97.8873 155.844 98.592 155.527 99.208C155.219 99.8147 154.794 100.286 154.253 100.622C153.721 100.958 153.123 101.126 152.461 101.126C151.891 101.126 151.387 101.009 150.949 100.776C150.519 100.543 150.169 100.249 149.899 99.894V104.696H147.939V93.244H149.899V94.364ZM154.001 97.094C154.001 96.6273 153.903 96.226 153.707 95.89C153.52 95.5447 153.268 95.2833 152.951 95.106C152.643 94.9287 152.307 94.84 151.943 94.84C151.588 94.84 151.252 94.9333 150.935 95.12C150.627 95.2973 150.375 95.5587 150.179 95.904C149.992 96.2493 149.899 96.6553 149.899 97.122C149.899 97.5887 149.992 97.9947 150.179 98.34C150.375 98.6853 150.627 98.9513 150.935 99.138C151.252 99.3153 151.588 99.404 151.943 99.404C152.307 99.404 152.643 99.3107 152.951 99.124C153.268 98.9373 153.52 98.6713 153.707 98.326C153.903 97.9807 154.001 97.57 154.001 97.094Z" fill="#016170"/>
<path d="M56.3145 124.605L53.7656 132H52.2246L55.4355 123.469H56.4199L56.3145 124.605ZM58.4473 132L55.8926 124.605L55.7812 123.469H56.7715L59.9941 132H58.4473ZM58.3242 128.836V130.002H53.6836V128.836H58.3242ZM60.8145 123H62.2266V130.646L62.0918 132H60.8145V123ZM66.3633 128.771V128.895C66.3633 129.363 66.3105 129.795 66.2051 130.189C66.1035 130.58 65.9473 130.92 65.7363 131.209C65.5293 131.498 65.2715 131.723 64.9629 131.883C64.6582 132.039 64.3047 132.117 63.9023 132.117C63.5078 132.117 63.1641 132.043 62.8711 131.895C62.5781 131.746 62.332 131.535 62.1328 131.262C61.9375 130.988 61.7793 130.662 61.6582 130.283C61.5371 129.904 61.4512 129.486 61.4004 129.029V128.637C61.4512 128.176 61.5371 127.758 61.6582 127.383C61.7793 127.004 61.9375 126.678 62.1328 126.404C62.332 126.127 62.5762 125.914 62.8652 125.766C63.1582 125.617 63.5 125.543 63.8906 125.543C64.2969 125.543 64.6543 125.621 64.9629 125.777C65.2754 125.934 65.5352 126.156 65.7422 126.445C65.9492 126.73 66.1035 127.07 66.2051 127.465C66.3105 127.859 66.3633 128.295 66.3633 128.771ZM64.9512 128.895V128.771C64.9512 128.486 64.9277 128.219 64.8809 127.969C64.834 127.715 64.7559 127.492 64.6465 127.301C64.541 127.109 64.3965 126.959 64.2129 126.85C64.0332 126.736 63.8086 126.68 63.5391 126.68C63.2891 126.68 63.0742 126.723 62.8945 126.809C62.7148 126.895 62.5645 127.012 62.4434 127.16C62.3223 127.309 62.2266 127.48 62.1562 127.676C62.0898 127.871 62.0449 128.082 62.0215 128.309V129.369C62.0566 129.662 62.1309 129.932 62.2441 130.178C62.3613 130.42 62.5254 130.615 62.7363 130.764C62.9473 130.908 63.2188 130.98 63.5508 130.98C63.8125 130.98 64.0332 130.928 64.2129 130.822C64.3926 130.717 64.5352 130.57 64.6406 130.383C64.75 130.191 64.8281 129.969 64.875 129.715C64.9258 129.461 64.9512 129.188 64.9512 128.895ZM67.2891 128.9V128.766C67.2891 128.309 67.3555 127.885 67.4883 127.494C67.6211 127.1 67.8125 126.758 68.0625 126.469C68.3164 126.176 68.625 125.949 68.9883 125.789C69.3555 125.625 69.7695 125.543 70.2305 125.543C70.6953 125.543 71.1094 125.625 71.4727 125.789C71.8398 125.949 72.1504 126.176 72.4043 126.469C72.6582 126.758 72.8516 127.1 72.9844 127.494C73.1172 127.885 73.1836 128.309 73.1836 128.766V128.9C73.1836 129.357 73.1172 129.781 72.9844 130.172C72.8516 130.562 72.6582 130.904 72.4043 131.197C72.1504 131.486 71.8418 131.713 71.4785 131.877C71.1152 132.037 70.7031 132.117 70.2422 132.117C69.7773 132.117 69.3613 132.037 68.9941 131.877C68.6309 131.713 68.3223 131.486 68.0684 131.197C67.8145 130.904 67.6211 130.562 67.4883 130.172C67.3555 129.781 67.2891 129.357 67.2891 128.9ZM68.7012 128.766V128.9C68.7012 129.186 68.7305 129.455 68.7891 129.709C68.8477 129.963 68.9395 130.186 69.0645 130.377C69.1895 130.568 69.3496 130.719 69.5449 130.828C69.7402 130.938 69.9727 130.992 70.2422 130.992C70.5039 130.992 70.7305 130.938 70.9219 130.828C71.1172 130.719 71.2773 130.568 71.4023 130.377C71.5273 130.186 71.6191 129.963 71.6777 129.709C71.7402 129.455 71.7715 129.186 71.7715 128.9V128.766C71.7715 128.484 71.7402 128.219 71.6777 127.969C71.6191 127.715 71.5254 127.49 71.3965 127.295C71.2715 127.1 71.1113 126.947 70.916 126.838C70.7246 126.725 70.4961 126.668 70.2305 126.668C69.9648 126.668 69.7344 126.725 69.5391 126.838C69.3477 126.947 69.1895 127.1 69.0645 127.295C68.9395 127.49 68.8477 127.715 68.7891 127.969C68.7305 128.219 68.7012 128.484 68.7012 128.766ZM78.1816 130.506V125.66H79.5996V132H78.2637L78.1816 130.506ZM78.3809 129.188L78.8555 129.176C78.8555 129.602 78.8086 129.994 78.7148 130.354C78.6211 130.709 78.4766 131.02 78.2812 131.285C78.0859 131.547 77.8359 131.752 77.5312 131.9C77.2266 132.045 76.8613 132.117 76.4355 132.117C76.127 132.117 75.8438 132.072 75.5859 131.982C75.3281 131.893 75.1055 131.754 74.918 131.566C74.7344 131.379 74.5918 131.135 74.4902 130.834C74.3887 130.533 74.3379 130.174 74.3379 129.756V125.66H75.75V129.768C75.75 129.998 75.7773 130.191 75.832 130.348C75.8867 130.5 75.9609 130.623 76.0547 130.717C76.1484 130.811 76.2578 130.877 76.3828 130.916C76.5078 130.955 76.6406 130.975 76.7812 130.975C77.1836 130.975 77.5 130.896 77.7305 130.74C77.9648 130.58 78.1309 130.365 78.2285 130.096C78.3301 129.826 78.3809 129.523 78.3809 129.188ZM83.9531 125.66V126.691H80.3789V125.66H83.9531ZM81.4102 124.107H82.8223V130.248C82.8223 130.443 82.8496 130.594 82.9043 130.699C82.9629 130.801 83.043 130.869 83.1445 130.904C83.2461 130.939 83.3652 130.957 83.502 130.957C83.5996 130.957 83.6934 130.951 83.7832 130.939C83.873 130.928 83.9453 130.916 84 130.904L84.0059 131.982C83.8887 132.018 83.752 132.049 83.5957 132.076C83.4434 132.104 83.2676 132.117 83.0684 132.117C82.7441 132.117 82.457 132.061 82.207 131.947C81.957 131.83 81.7617 131.641 81.6211 131.379C81.4805 131.117 81.4102 130.77 81.4102 130.336V124.107ZM91.4941 124.605L88.9453 132H87.4043L90.6152 123.469H91.5996L91.4941 124.605ZM93.627 132L91.0723 124.605L90.9609 123.469H91.9512L95.1738 132H93.627ZM93.5039 128.836V130.002H88.8633V128.836H93.5039ZM98.5781 130.992C98.8086 130.992 99.0156 130.947 99.1992 130.857C99.3867 130.764 99.5371 130.635 99.6504 130.471C99.7676 130.307 99.832 130.117 99.8438 129.902H101.174C101.166 130.312 101.045 130.686 100.811 131.021C100.576 131.357 100.266 131.625 99.8789 131.824C99.4922 132.02 99.0645 132.117 98.5957 132.117C98.1113 132.117 97.6895 132.035 97.3301 131.871C96.9707 131.703 96.6719 131.473 96.4336 131.18C96.1953 130.887 96.0156 130.549 95.8945 130.166C95.7773 129.783 95.7188 129.373 95.7188 128.936V128.73C95.7188 128.293 95.7773 127.883 95.8945 127.5C96.0156 127.113 96.1953 126.773 96.4336 126.48C96.6719 126.188 96.9707 125.959 97.3301 125.795C97.6895 125.627 98.1094 125.543 98.5898 125.543C99.0977 125.543 99.543 125.645 99.9258 125.848C100.309 126.047 100.609 126.326 100.828 126.686C101.051 127.041 101.166 127.455 101.174 127.928H99.8438C99.832 127.693 99.7734 127.482 99.668 127.295C99.5664 127.104 99.4219 126.951 99.2344 126.838C99.0508 126.725 98.8301 126.668 98.5723 126.668C98.2871 126.668 98.0508 126.727 97.8633 126.844C97.6758 126.957 97.5293 127.113 97.4238 127.312C97.3184 127.508 97.2422 127.729 97.1953 127.975C97.1523 128.217 97.1309 128.469 97.1309 128.73V128.936C97.1309 129.197 97.1523 129.451 97.1953 129.697C97.2383 129.943 97.3125 130.164 97.418 130.359C97.5273 130.551 97.6758 130.705 97.8633 130.822C98.0508 130.936 98.2891 130.992 98.5781 130.992ZM104.848 130.992C105.078 130.992 105.285 130.947 105.469 130.857C105.656 130.764 105.807 130.635 105.92 130.471C106.037 130.307 106.102 130.117 106.113 129.902H107.443C107.436 130.312 107.314 130.686 107.08 131.021C106.846 131.357 106.535 131.625 106.148 131.824C105.762 132.02 105.334 132.117 104.865 132.117C104.381 132.117 103.959 132.035 103.6 131.871C103.24 131.703 102.941 131.473 102.703 131.18C102.465 130.887 102.285 130.549 102.164 130.166C102.047 129.783 101.988 129.373 101.988 128.936V128.73C101.988 128.293 102.047 127.883 102.164 127.5C102.285 127.113 102.465 126.773 102.703 126.48C102.941 126.188 103.24 125.959 103.6 125.795C103.959 125.627 104.379 125.543 104.859 125.543C105.367 125.543 105.812 125.645 106.195 125.848C106.578 126.047 106.879 126.326 107.098 126.686C107.32 127.041 107.436 127.455 107.443 127.928H106.113C106.102 127.693 106.043 127.482 105.938 127.295C105.836 127.104 105.691 126.951 105.504 126.838C105.32 126.725 105.1 126.668 104.842 126.668C104.557 126.668 104.32 126.727 104.133 126.844C103.945 126.957 103.799 127.113 103.693 127.312C103.588 127.508 103.512 127.729 103.465 127.975C103.422 128.217 103.4 128.469 103.4 128.73V128.936C103.4 129.197 103.422 129.451 103.465 129.697C103.508 129.943 103.582 130.164 103.688 130.359C103.797 130.551 103.945 130.705 104.133 130.822C104.32 130.936 104.559 130.992 104.848 130.992ZM108.258 128.9V128.766C108.258 128.309 108.324 127.885 108.457 127.494C108.59 127.1 108.781 126.758 109.031 126.469C109.285 126.176 109.594 125.949 109.957 125.789C110.324 125.625 110.738 125.543 111.199 125.543C111.664 125.543 112.078 125.625 112.441 125.789C112.809 125.949 113.119 126.176 113.373 126.469C113.627 126.758 113.82 127.1 113.953 127.494C114.086 127.885 114.152 128.309 114.152 128.766V128.9C114.152 129.357 114.086 129.781 113.953 130.172C113.82 130.562 113.627 130.904 113.373 131.197C113.119 131.486 112.811 131.713 112.447 131.877C112.084 132.037 111.672 132.117 111.211 132.117C110.746 132.117 110.33 132.037 109.963 131.877C109.6 131.713 109.291 131.486 109.037 131.197C108.783 130.904 108.59 130.562 108.457 130.172C108.324 129.781 108.258 129.357 108.258 128.9ZM109.67 128.766V128.9C109.67 129.186 109.699 129.455 109.758 129.709C109.816 129.963 109.908 130.186 110.033 130.377C110.158 130.568 110.318 130.719 110.514 130.828C110.709 130.938 110.941 130.992 111.211 130.992C111.473 130.992 111.699 130.938 111.891 130.828C112.086 130.719 112.246 130.568 112.371 130.377C112.496 130.186 112.588 129.963 112.646 129.709C112.709 129.455 112.74 129.186 112.74 128.9V128.766C112.74 128.484 112.709 128.219 112.646 127.969C112.588 127.715 112.494 127.49 112.365 127.295C112.24 127.1 112.08 126.947 111.885 126.838C111.693 126.725 111.465 126.668 111.199 126.668C110.934 126.668 110.703 126.725 110.508 126.838C110.316 126.947 110.158 127.1 110.033 127.295C109.908 127.49 109.816 127.715 109.758 127.969C109.699 128.219 109.67 128.484 109.67 128.766ZM119.15 130.506V125.66H120.568V132H119.232L119.15 130.506ZM119.35 129.188L119.824 129.176C119.824 129.602 119.777 129.994 119.684 130.354C119.59 130.709 119.445 131.02 119.25 131.285C119.055 131.547 118.805 131.752 118.5 131.9C118.195 132.045 117.83 132.117 117.404 132.117C117.096 132.117 116.812 132.072 116.555 131.982C116.297 131.893 116.074 131.754 115.887 131.566C115.703 131.379 115.561 131.135 115.459 130.834C115.357 130.533 115.307 130.174 115.307 129.756V125.66H116.719V129.768C116.719 129.998 116.746 130.191 116.801 130.348C116.855 130.5 116.93 130.623 117.023 130.717C117.117 130.811 117.227 130.877 117.352 130.916C117.477 130.955 117.609 130.975 117.75 130.975C118.152 130.975 118.469 130.896 118.699 130.74C118.934 130.58 119.1 130.365 119.197 130.096C119.299 129.826 119.35 129.523 119.35 129.188ZM123.416 127.014V132H122.004V125.66H123.334L123.416 127.014ZM123.164 128.596L122.707 128.59C122.711 128.141 122.773 127.729 122.895 127.354C123.02 126.979 123.191 126.656 123.41 126.387C123.633 126.117 123.898 125.91 124.207 125.766C124.516 125.617 124.859 125.543 125.238 125.543C125.543 125.543 125.818 125.586 126.064 125.672C126.314 125.754 126.527 125.889 126.703 126.076C126.883 126.264 127.02 126.508 127.113 126.809C127.207 127.105 127.254 127.471 127.254 127.904V132H125.836V127.898C125.836 127.594 125.791 127.354 125.701 127.178C125.615 126.998 125.488 126.871 125.32 126.797C125.156 126.719 124.951 126.68 124.705 126.68C124.463 126.68 124.246 126.73 124.055 126.832C123.863 126.934 123.701 127.072 123.568 127.248C123.439 127.424 123.34 127.627 123.27 127.857C123.199 128.088 123.164 128.334 123.164 128.596ZM131.602 125.66V126.691H128.027V125.66H131.602ZM129.059 124.107H130.471V130.248C130.471 130.443 130.498 130.594 130.553 130.699C130.611 130.801 130.691 130.869 130.793 130.904C130.895 130.939 131.014 130.957 131.15 130.957C131.248 130.957 131.342 130.951 131.432 130.939C131.521 130.928 131.594 130.916 131.648 130.904L131.654 131.982C131.537 132.018 131.4 132.049 131.244 132.076C131.092 132.104 130.916 132.117 130.717 132.117C130.393 132.117 130.105 132.061 129.855 131.947C129.605 131.83 129.41 131.641 129.27 131.379C129.129 131.117 129.059 130.77 129.059 130.336V124.107ZM136.418 123.469H137.73L140.197 130.049L142.658 123.469H143.971L140.713 132H139.67L136.418 123.469ZM135.82 123.469H137.068L137.285 129.164V132H135.82V123.469ZM143.32 123.469H144.574V132H143.104V129.164L143.32 123.469ZM149.754 130.729V127.705C149.754 127.479 149.713 127.283 149.631 127.119C149.549 126.955 149.424 126.828 149.256 126.738C149.092 126.648 148.885 126.604 148.635 126.604C148.404 126.604 148.205 126.643 148.037 126.721C147.869 126.799 147.738 126.904 147.645 127.037C147.551 127.17 147.504 127.32 147.504 127.488H146.098C146.098 127.238 146.158 126.996 146.279 126.762C146.4 126.527 146.576 126.318 146.807 126.135C147.037 125.951 147.312 125.807 147.633 125.701C147.953 125.596 148.312 125.543 148.711 125.543C149.188 125.543 149.609 125.623 149.977 125.783C150.348 125.943 150.639 126.186 150.85 126.51C151.064 126.83 151.172 127.232 151.172 127.717V130.535C151.172 130.824 151.191 131.084 151.23 131.314C151.273 131.541 151.334 131.738 151.412 131.906V132H149.965C149.898 131.848 149.846 131.654 149.807 131.42C149.771 131.182 149.754 130.951 149.754 130.729ZM149.959 128.145L149.971 129.018H148.957C148.695 129.018 148.465 129.043 148.266 129.094C148.066 129.141 147.9 129.211 147.768 129.305C147.635 129.398 147.535 129.512 147.469 129.645C147.402 129.777 147.369 129.928 147.369 130.096C147.369 130.264 147.408 130.418 147.486 130.559C147.564 130.695 147.678 130.803 147.826 130.881C147.979 130.959 148.162 130.998 148.377 130.998C148.666 130.998 148.918 130.939 149.133 130.822C149.352 130.701 149.523 130.555 149.648 130.383C149.773 130.207 149.84 130.041 149.848 129.885L150.305 130.512C150.258 130.672 150.178 130.844 150.064 131.027C149.951 131.211 149.803 131.387 149.619 131.555C149.439 131.719 149.223 131.854 148.969 131.959C148.719 132.064 148.43 132.117 148.102 132.117C147.688 132.117 147.318 132.035 146.994 131.871C146.67 131.703 146.416 131.479 146.232 131.197C146.049 130.912 145.957 130.59 145.957 130.23C145.957 129.895 146.02 129.598 146.145 129.34C146.273 129.078 146.461 128.859 146.707 128.684C146.957 128.508 147.262 128.375 147.621 128.285C147.98 128.191 148.391 128.145 148.852 128.145H149.959ZM154.049 127.014V132H152.637V125.66H153.967L154.049 127.014ZM153.797 128.596L153.34 128.59C153.344 128.141 153.406 127.729 153.527 127.354C153.652 126.979 153.824 126.656 154.043 126.387C154.266 126.117 154.531 125.91 154.84 125.766C155.148 125.617 155.492 125.543 155.871 125.543C156.176 125.543 156.451 125.586 156.697 125.672C156.947 125.754 157.16 125.889 157.336 126.076C157.516 126.264 157.652 126.508 157.746 126.809C157.84 127.105 157.887 127.471 157.887 127.904V132H156.469V127.898C156.469 127.594 156.424 127.354 156.334 127.178C156.248 126.998 156.121 126.871 155.953 126.797C155.789 126.719 155.584 126.68 155.338 126.68C155.096 126.68 154.879 126.73 154.688 126.832C154.496 126.934 154.334 127.072 154.201 127.248C154.072 127.424 153.973 127.627 153.902 127.857C153.832 128.088 153.797 128.334 153.797 128.596ZM162.902 130.729V127.705C162.902 127.479 162.861 127.283 162.779 127.119C162.697 126.955 162.572 126.828 162.404 126.738C162.24 126.648 162.033 126.604 161.783 126.604C161.553 126.604 161.354 126.643 161.186 126.721C161.018 126.799 160.887 126.904 160.793 127.037C160.699 127.17 160.652 127.32 160.652 127.488H159.246C159.246 127.238 159.307 126.996 159.428 126.762C159.549 126.527 159.725 126.318 159.955 126.135C160.186 125.951 160.461 125.807 160.781 125.701C161.102 125.596 161.461 125.543 161.859 125.543C162.336 125.543 162.758 125.623 163.125 125.783C163.496 125.943 163.787 126.186 163.998 126.51C164.213 126.83 164.32 127.232 164.32 127.717V130.535C164.32 130.824 164.34 131.084 164.379 131.314C164.422 131.541 164.482 131.738 164.561 131.906V132H163.113C163.047 131.848 162.994 131.654 162.955 131.42C162.92 131.182 162.902 130.951 162.902 130.729ZM163.107 128.145L163.119 129.018H162.105C161.844 129.018 161.613 129.043 161.414 129.094C161.215 129.141 161.049 129.211 160.916 129.305C160.783 129.398 160.684 129.512 160.617 129.645C160.551 129.777 160.518 129.928 160.518 130.096C160.518 130.264 160.557 130.418 160.635 130.559C160.713 130.695 160.826 130.803 160.975 130.881C161.127 130.959 161.311 130.998 161.525 130.998C161.814 130.998 162.066 130.939 162.281 130.822C162.5 130.701 162.672 130.555 162.797 130.383C162.922 130.207 162.988 130.041 162.996 129.885L163.453 130.512C163.406 130.672 163.326 130.844 163.213 131.027C163.1 131.211 162.951 131.387 162.768 131.555C162.588 131.719 162.371 131.854 162.117 131.959C161.867 132.064 161.578 132.117 161.25 132.117C160.836 132.117 160.467 132.035 160.143 131.871C159.818 131.703 159.564 131.479 159.381 131.197C159.197 130.912 159.105 130.59 159.105 130.23C159.105 129.895 159.168 129.598 159.293 129.34C159.422 129.078 159.609 128.859 159.855 128.684C160.105 128.508 160.41 128.375 160.77 128.285C161.129 128.191 161.539 128.145 162 128.145H163.107ZM169.857 125.66H171.141V131.824C171.141 132.395 171.02 132.879 170.777 133.277C170.535 133.676 170.197 133.979 169.764 134.186C169.33 134.396 168.828 134.502 168.258 134.502C168.016 134.502 167.746 134.467 167.449 134.396C167.156 134.326 166.871 134.213 166.594 134.057C166.32 133.904 166.092 133.703 165.908 133.453L166.57 132.621C166.797 132.891 167.047 133.088 167.32 133.213C167.594 133.338 167.881 133.4 168.182 133.4C168.506 133.4 168.781 133.34 169.008 133.219C169.238 133.102 169.416 132.928 169.541 132.697C169.666 132.467 169.729 132.186 169.729 131.854V127.096L169.857 125.66ZM165.551 128.9V128.777C165.551 128.297 165.609 127.859 165.727 127.465C165.844 127.066 166.012 126.725 166.23 126.439C166.449 126.15 166.715 125.93 167.027 125.777C167.34 125.621 167.693 125.543 168.088 125.543C168.498 125.543 168.848 125.617 169.137 125.766C169.43 125.914 169.674 126.127 169.869 126.404C170.064 126.678 170.217 127.006 170.326 127.389C170.439 127.768 170.523 128.189 170.578 128.654V129.047C170.527 129.5 170.441 129.914 170.32 130.289C170.199 130.664 170.039 130.988 169.84 131.262C169.641 131.535 169.395 131.746 169.102 131.895C168.812 132.043 168.471 132.117 168.076 132.117C167.689 132.117 167.34 132.037 167.027 131.877C166.719 131.717 166.453 131.492 166.23 131.203C166.012 130.914 165.844 130.574 165.727 130.184C165.609 129.789 165.551 129.361 165.551 128.9ZM166.963 128.777V128.9C166.963 129.189 166.99 129.459 167.045 129.709C167.104 129.959 167.191 130.18 167.309 130.371C167.43 130.559 167.582 130.707 167.766 130.816C167.953 130.922 168.174 130.975 168.428 130.975C168.76 130.975 169.031 130.904 169.242 130.764C169.457 130.623 169.621 130.434 169.734 130.195C169.852 129.953 169.934 129.684 169.98 129.387V128.326C169.957 128.096 169.908 127.881 169.834 127.682C169.764 127.482 169.668 127.309 169.547 127.16C169.426 127.008 169.273 126.891 169.09 126.809C168.906 126.723 168.689 126.68 168.439 126.68C168.186 126.68 167.965 126.734 167.777 126.844C167.59 126.953 167.436 127.104 167.314 127.295C167.197 127.486 167.109 127.709 167.051 127.963C166.992 128.217 166.963 128.488 166.963 128.777ZM175.4 132.117C174.932 132.117 174.508 132.041 174.129 131.889C173.754 131.732 173.434 131.516 173.168 131.238C172.906 130.961 172.705 130.635 172.564 130.26C172.424 129.885 172.354 129.48 172.354 129.047V128.812C172.354 128.316 172.426 127.867 172.57 127.465C172.715 127.062 172.916 126.719 173.174 126.434C173.432 126.145 173.736 125.924 174.088 125.771C174.439 125.619 174.82 125.543 175.23 125.543C175.684 125.543 176.08 125.619 176.42 125.771C176.76 125.924 177.041 126.139 177.264 126.416C177.49 126.689 177.658 127.016 177.768 127.395C177.881 127.773 177.938 128.191 177.938 128.648V129.252H173.039V128.238H176.543V128.127C176.535 127.873 176.484 127.635 176.391 127.412C176.301 127.189 176.162 127.01 175.975 126.873C175.787 126.736 175.537 126.668 175.225 126.668C174.99 126.668 174.781 126.719 174.598 126.82C174.418 126.918 174.268 127.061 174.146 127.248C174.025 127.436 173.932 127.662 173.865 127.928C173.803 128.189 173.771 128.484 173.771 128.812V129.047C173.771 129.324 173.809 129.582 173.883 129.82C173.961 130.055 174.074 130.26 174.223 130.436C174.371 130.611 174.551 130.75 174.762 130.852C174.973 130.949 175.213 130.998 175.482 130.998C175.822 130.998 176.125 130.93 176.391 130.793C176.656 130.656 176.887 130.463 177.082 130.213L177.826 130.934C177.689 131.133 177.512 131.324 177.293 131.508C177.074 131.688 176.807 131.834 176.49 131.947C176.178 132.061 175.814 132.117 175.4 132.117ZM180.451 126.949V132H179.039V125.66H180.369L180.451 126.949ZM180.223 128.596L179.742 128.59C179.742 128.152 179.797 127.748 179.906 127.377C180.016 127.006 180.176 126.684 180.387 126.41C180.598 126.133 180.859 125.92 181.172 125.771C181.488 125.619 181.854 125.543 182.268 125.543C182.557 125.543 182.82 125.586 183.059 125.672C183.301 125.754 183.51 125.885 183.686 126.064C183.865 126.244 184.002 126.475 184.096 126.756C184.193 127.037 184.242 127.377 184.242 127.775V132H182.83V127.898C182.83 127.59 182.783 127.348 182.689 127.172C182.6 126.996 182.469 126.871 182.297 126.797C182.129 126.719 181.928 126.68 181.693 126.68C181.428 126.68 181.201 126.73 181.014 126.832C180.83 126.934 180.68 127.072 180.562 127.248C180.445 127.424 180.359 127.627 180.305 127.857C180.25 128.088 180.223 128.334 180.223 128.596ZM184.154 128.221L183.492 128.367C183.492 127.984 183.545 127.623 183.65 127.283C183.76 126.939 183.918 126.639 184.125 126.381C184.336 126.119 184.596 125.914 184.904 125.766C185.213 125.617 185.566 125.543 185.965 125.543C186.289 125.543 186.578 125.588 186.832 125.678C187.09 125.764 187.309 125.9 187.488 126.088C187.668 126.275 187.805 126.52 187.898 126.82C187.992 127.117 188.039 127.477 188.039 127.898V132H186.621V127.893C186.621 127.572 186.574 127.324 186.48 127.148C186.391 126.973 186.262 126.852 186.094 126.785C185.926 126.715 185.725 126.68 185.49 126.68C185.271 126.68 185.078 126.721 184.91 126.803C184.746 126.881 184.607 126.992 184.494 127.137C184.381 127.277 184.295 127.439 184.236 127.623C184.182 127.807 184.154 128.006 184.154 128.221ZM192.287 132.117C191.818 132.117 191.395 132.041 191.016 131.889C190.641 131.732 190.32 131.516 190.055 131.238C189.793 130.961 189.592 130.635 189.451 130.26C189.311 129.885 189.24 129.48 189.24 129.047V128.812C189.24 128.316 189.312 127.867 189.457 127.465C189.602 127.062 189.803 126.719 190.061 126.434C190.318 126.145 190.623 125.924 190.975 125.771C191.326 125.619 191.707 125.543 192.117 125.543C192.57 125.543 192.967 125.619 193.307 125.771C193.646 125.924 193.928 126.139 194.15 126.416C194.377 126.689 194.545 127.016 194.654 127.395C194.768 127.773 194.824 128.191 194.824 128.648V129.252H189.926V128.238H193.43V128.127C193.422 127.873 193.371 127.635 193.277 127.412C193.188 127.189 193.049 127.01 192.861 126.873C192.674 126.736 192.424 126.668 192.111 126.668C191.877 126.668 191.668 126.719 191.484 126.82C191.305 126.918 191.154 127.061 191.033 127.248C190.912 127.436 190.818 127.662 190.752 127.928C190.689 128.189 190.658 128.484 190.658 128.812V129.047C190.658 129.324 190.695 129.582 190.77 129.82C190.848 130.055 190.961 130.26 191.109 130.436C191.258 130.611 191.438 130.75 191.648 130.852C191.859 130.949 192.1 130.998 192.369 130.998C192.709 130.998 193.012 130.93 193.277 130.793C193.543 130.656 193.773 130.463 193.969 130.213L194.713 130.934C194.576 131.133 194.398 131.324 194.18 131.508C193.961 131.688 193.693 131.834 193.377 131.947C193.064 132.061 192.701 132.117 192.287 132.117ZM197.326 127.014V132H195.914V125.66H197.244L197.326 127.014ZM197.074 128.596L196.617 128.59C196.621 128.141 196.684 127.729 196.805 127.354C196.93 126.979 197.102 126.656 197.32 126.387C197.543 126.117 197.809 125.91 198.117 125.766C198.426 125.617 198.77 125.543 199.148 125.543C199.453 125.543 199.729 125.586 199.975 125.672C200.225 125.754 200.438 125.889 200.613 126.076C200.793 126.264 200.93 126.508 201.023 126.809C201.117 127.105 201.164 127.471 201.164 127.904V132H199.746V127.898C199.746 127.594 199.701 127.354 199.611 127.178C199.525 126.998 199.398 126.871 199.23 126.797C199.066 126.719 198.861 126.68 198.615 126.68C198.373 126.68 198.156 126.73 197.965 126.832C197.773 126.934 197.611 127.072 197.479 127.248C197.35 127.424 197.25 127.627 197.18 127.857C197.109 128.088 197.074 128.334 197.074 128.596ZM205.512 125.66V126.691H201.938V125.66H205.512ZM202.969 124.107H204.381V130.248C204.381 130.443 204.408 130.594 204.463 130.699C204.521 130.801 204.602 130.869 204.703 130.904C204.805 130.939 204.924 130.957 205.061 130.957C205.158 130.957 205.252 130.951 205.342 130.939C205.432 130.928 205.504 130.916 205.559 130.904L205.564 131.982C205.447 132.018 205.311 132.049 205.154 132.076C205.002 132.104 204.826 132.117 204.627 132.117C204.303 132.117 204.016 132.061 203.766 131.947C203.516 131.83 203.32 131.641 203.18 131.379C203.039 131.117 202.969 130.77 202.969 130.336V124.107ZM50.1211 141.5V141.969C50.1211 142.613 50.0371 143.191 49.8691 143.703C49.7012 144.215 49.4609 144.65 49.1484 145.01C48.8398 145.369 48.4688 145.645 48.0352 145.836C47.6016 146.023 47.1211 146.117 46.5938 146.117C46.0703 146.117 45.5918 146.023 45.1582 145.836C44.7285 145.645 44.3555 145.369 44.0391 145.01C43.7227 144.65 43.4766 144.215 43.3008 143.703C43.1289 143.191 43.043 142.613 43.043 141.969V141.5C43.043 140.855 43.1289 140.279 43.3008 139.771C43.4727 139.26 43.7148 138.824 44.0273 138.465C44.3438 138.102 44.7168 137.826 45.1465 137.639C45.5801 137.447 46.0586 137.352 46.582 137.352C47.1094 137.352 47.5898 137.447 48.0234 137.639C48.457 137.826 48.8301 138.102 49.1426 138.465C49.4551 138.824 49.6953 139.26 49.8633 139.771C50.0352 140.279 50.1211 140.855 50.1211 141.5ZM48.6504 141.969V141.488C48.6504 141.012 48.6035 140.592 48.5098 140.229C48.4199 139.861 48.2852 139.555 48.1055 139.309C47.9297 139.059 47.7129 138.871 47.4551 138.746C47.1973 138.617 46.9062 138.553 46.582 138.553C46.2578 138.553 45.9688 138.617 45.7148 138.746C45.4609 138.871 45.2441 139.059 45.0645 139.309C44.8887 139.555 44.7539 139.861 44.6602 140.229C44.5664 140.592 44.5195 141.012 44.5195 141.488V141.969C44.5195 142.445 44.5664 142.867 44.6602 143.234C44.7539 143.602 44.8906 143.912 45.0703 144.166C45.2539 144.416 45.4727 144.605 45.7266 144.734C45.9805 144.859 46.2695 144.922 46.5938 144.922C46.9219 144.922 47.2129 144.859 47.4668 144.734C47.7207 144.605 47.9355 144.416 48.1113 144.166C48.2871 143.912 48.4199 143.602 48.5098 143.234C48.6035 142.867 48.6504 142.445 48.6504 141.969ZM52.8691 140.867V146H51.457V139.66H52.8047L52.8691 140.867ZM54.8086 139.619L54.7969 140.932C54.7109 140.916 54.6172 140.904 54.5156 140.896C54.418 140.889 54.3203 140.885 54.2227 140.885C53.9805 140.885 53.7676 140.92 53.584 140.99C53.4004 141.057 53.2461 141.154 53.1211 141.283C53 141.408 52.9062 141.561 52.8398 141.74C52.7734 141.92 52.7344 142.121 52.7227 142.344L52.4004 142.367C52.4004 141.969 52.4395 141.6 52.5176 141.26C52.5957 140.92 52.7129 140.621 52.8691 140.363C53.0293 140.105 53.2285 139.904 53.4668 139.76C53.709 139.615 53.9883 139.543 54.3047 139.543C54.3906 139.543 54.4824 139.551 54.5801 139.566C54.6816 139.582 54.7578 139.6 54.8086 139.619ZM59.4434 144.688V137H60.8613V146H59.5781L59.4434 144.688ZM55.3184 142.9V142.777C55.3184 142.297 55.375 141.859 55.4883 141.465C55.6016 141.066 55.7656 140.725 55.9805 140.439C56.1953 140.15 56.457 139.93 56.7656 139.777C57.0742 139.621 57.4219 139.543 57.8086 139.543C58.1914 139.543 58.5273 139.617 58.8164 139.766C59.1055 139.914 59.3516 140.127 59.5547 140.404C59.7578 140.678 59.9199 141.006 60.041 141.389C60.1621 141.768 60.248 142.189 60.2988 142.654V143.047C60.248 143.5 60.1621 143.914 60.041 144.289C59.9199 144.664 59.7578 144.988 59.5547 145.262C59.3516 145.535 59.1035 145.746 58.8105 145.895C58.5215 146.043 58.1836 146.117 57.7969 146.117C57.4141 146.117 57.0684 146.037 56.7598 145.877C56.4551 145.717 56.1953 145.492 55.9805 145.203C55.7656 144.914 55.6016 144.574 55.4883 144.184C55.375 143.789 55.3184 143.361 55.3184 142.9ZM56.7305 142.777V142.9C56.7305 143.189 56.7559 143.459 56.8066 143.709C56.8613 143.959 56.9453 144.18 57.0586 144.371C57.1719 144.559 57.3184 144.707 57.498 144.816C57.6816 144.922 57.9004 144.975 58.1543 144.975C58.4746 144.975 58.7383 144.904 58.9453 144.764C59.1523 144.623 59.3145 144.434 59.4316 144.195C59.5527 143.953 59.6348 143.684 59.6777 143.387V142.326C59.6543 142.096 59.6055 141.881 59.5312 141.682C59.4609 141.482 59.3652 141.309 59.2441 141.16C59.123 141.008 58.9727 140.891 58.793 140.809C58.6172 140.723 58.4082 140.68 58.166 140.68C57.9082 140.68 57.6895 140.734 57.5098 140.844C57.3301 140.953 57.1816 141.104 57.0645 141.295C56.9512 141.486 56.8672 141.709 56.8125 141.963C56.7578 142.217 56.7305 142.488 56.7305 142.777ZM65.1328 146.117C64.6641 146.117 64.2402 146.041 63.8613 145.889C63.4863 145.732 63.166 145.516 62.9004 145.238C62.6387 144.961 62.4375 144.635 62.2969 144.26C62.1562 143.885 62.0859 143.48 62.0859 143.047V142.812C62.0859 142.316 62.1582 141.867 62.3027 141.465C62.4473 141.062 62.6484 140.719 62.9062 140.434C63.1641 140.145 63.4688 139.924 63.8203 139.771C64.1719 139.619 64.5527 139.543 64.9629 139.543C65.416 139.543 65.8125 139.619 66.1523 139.771C66.4922 139.924 66.7734 140.139 66.9961 140.416C67.2227 140.689 67.3906 141.016 67.5 141.395C67.6133 141.773 67.6699 142.191 67.6699 142.648V143.252H62.7715V142.238H66.2754V142.127C66.2676 141.873 66.2168 141.635 66.123 141.412C66.0332 141.189 65.8945 141.01 65.707 140.873C65.5195 140.736 65.2695 140.668 64.957 140.668C64.7227 140.668 64.5137 140.719 64.3301 140.82C64.1504 140.918 64 141.061 63.8789 141.248C63.7578 141.436 63.6641 141.662 63.5977 141.928C63.5352 142.189 63.5039 142.484 63.5039 142.812V143.047C63.5039 143.324 63.541 143.582 63.6152 143.82C63.6934 144.055 63.8066 144.26 63.9551 144.436C64.1035 144.611 64.2832 144.75 64.4941 144.852C64.7051 144.949 64.9453 144.998 65.2148 144.998C65.5547 144.998 65.8574 144.93 66.123 144.793C66.3887 144.656 66.6191 144.463 66.8145 144.213L67.5586 144.934C67.4219 145.133 67.2441 145.324 67.0254 145.508C66.8066 145.688 66.5391 145.834 66.2227 145.947C65.9102 146.061 65.5469 146.117 65.1328 146.117ZM70.1895 140.867V146H68.7773V139.66H70.125L70.1895 140.867ZM72.1289 139.619L72.1172 140.932C72.0312 140.916 71.9375 140.904 71.8359 140.896C71.7383 140.889 71.6406 140.885 71.543 140.885C71.3008 140.885 71.0879 140.92 70.9043 140.99C70.7207 141.057 70.5664 141.154 70.4414 141.283C70.3203 141.408 70.2266 141.561 70.1602 141.74C70.0938 141.92 70.0547 142.121 70.043 142.344L69.7207 142.367C69.7207 141.969 69.7598 141.6 69.8379 141.26C69.916 140.92 70.0332 140.621 70.1895 140.363C70.3496 140.105 70.5488 139.904 70.7871 139.76C71.0293 139.615 71.3086 139.543 71.625 139.543C71.7109 139.543 71.8027 139.551 71.9004 139.566C72.002 139.582 72.0781 139.6 72.1289 139.619ZM74.5254 139.66V146H73.1074V139.66H74.5254ZM73.0137 137.996C73.0137 137.781 73.084 137.604 73.2246 137.463C73.3691 137.318 73.5684 137.246 73.8223 137.246C74.0723 137.246 74.2695 137.318 74.4141 137.463C74.5586 137.604 74.6309 137.781 74.6309 137.996C74.6309 138.207 74.5586 138.383 74.4141 138.523C74.2695 138.664 74.0723 138.734 73.8223 138.734C73.5684 138.734 73.3691 138.664 73.2246 138.523C73.084 138.383 73.0137 138.207 73.0137 137.996ZM77.4727 141.014V146H76.0605V139.66H77.3906L77.4727 141.014ZM77.2207 142.596L76.7637 142.59C76.7676 142.141 76.8301 141.729 76.9512 141.354C77.0762 140.979 77.248 140.656 77.4668 140.387C77.6895 140.117 77.9551 139.91 78.2637 139.766C78.5723 139.617 78.916 139.543 79.2949 139.543C79.5996 139.543 79.875 139.586 80.1211 139.672C80.3711 139.754 80.584 139.889 80.7598 140.076C80.9395 140.264 81.0762 140.508 81.1699 140.809C81.2637 141.105 81.3105 141.471 81.3105 141.904V146H79.8926V141.898C79.8926 141.594 79.8477 141.354 79.7578 141.178C79.6719 140.998 79.5449 140.871 79.377 140.797C79.2129 140.719 79.0078 140.68 78.7617 140.68C78.5195 140.68 78.3027 140.73 78.1113 140.832C77.9199 140.934 77.7578 141.072 77.625 141.248C77.4961 141.424 77.3965 141.627 77.3262 141.857C77.2559 142.088 77.2207 142.334 77.2207 142.596ZM86.8125 139.66H88.0957V145.824C88.0957 146.395 87.9746 146.879 87.7324 147.277C87.4902 147.676 87.1523 147.979 86.7188 148.186C86.2852 148.396 85.7832 148.502 85.2129 148.502C84.9707 148.502 84.7012 148.467 84.4043 148.396C84.1113 148.326 83.8262 148.213 83.5488 148.057C83.2754 147.904 83.0469 147.703 82.8633 147.453L83.5254 146.621C83.752 146.891 84.002 147.088 84.2754 147.213C84.5488 147.338 84.8359 147.4 85.1367 147.4C85.4609 147.4 85.7363 147.34 85.9629 147.219C86.1934 147.102 86.3711 146.928 86.4961 146.697C86.6211 146.467 86.6836 146.186 86.6836 145.854V141.096L86.8125 139.66ZM82.5059 142.9V142.777C82.5059 142.297 82.5645 141.859 82.6816 141.465C82.7988 141.066 82.9668 140.725 83.1855 140.439C83.4043 140.15 83.6699 139.93 83.9824 139.777C84.2949 139.621 84.6484 139.543 85.043 139.543C85.4531 139.543 85.8027 139.617 86.0918 139.766C86.3848 139.914 86.6289 140.127 86.8242 140.404C87.0195 140.678 87.1719 141.006 87.2812 141.389C87.3945 141.768 87.4785 142.189 87.5332 142.654V143.047C87.4824 143.5 87.3965 143.914 87.2754 144.289C87.1543 144.664 86.9941 144.988 86.7949 145.262C86.5957 145.535 86.3496 145.746 86.0566 145.895C85.7676 146.043 85.4258 146.117 85.0312 146.117C84.6445 146.117 84.2949 146.037 83.9824 145.877C83.6738 145.717 83.4082 145.492 83.1855 145.203C82.9668 144.914 82.7988 144.574 82.6816 144.184C82.5645 143.789 82.5059 143.361 82.5059 142.9ZM83.918 142.777V142.9C83.918 143.189 83.9453 143.459 84 143.709C84.0586 143.959 84.1465 144.18 84.2637 144.371C84.3848 144.559 84.5371 144.707 84.7207 144.816C84.9082 144.922 85.1289 144.975 85.3828 144.975C85.7148 144.975 85.9863 144.904 86.1973 144.764C86.4121 144.623 86.5762 144.434 86.6895 144.195C86.8066 143.953 86.8887 143.684 86.9355 143.387V142.326C86.9121 142.096 86.8633 141.881 86.7891 141.682C86.7188 141.482 86.623 141.309 86.502 141.16C86.3809 141.008 86.2285 140.891 86.0449 140.809C85.8613 140.723 85.6445 140.68 85.3945 140.68C85.1406 140.68 84.9199 140.734 84.7324 140.844C84.5449 140.953 84.3906 141.104 84.2695 141.295C84.1523 141.486 84.0645 141.709 84.0059 141.963C83.9473 142.217 83.918 142.488 83.918 142.777ZM94.0078 141.359L95.4785 140.369C95.7246 140.205 95.9004 140.045 96.0059 139.889C96.1113 139.729 96.1641 139.529 96.1641 139.291C96.1641 139.088 96.0859 138.9 95.9297 138.729C95.7734 138.557 95.5527 138.471 95.2676 138.471C95.0684 138.471 94.9004 138.518 94.7637 138.611C94.627 138.701 94.5234 138.822 94.4531 138.975C94.3867 139.123 94.3535 139.289 94.3535 139.473C94.3535 139.648 94.3984 139.83 94.4883 140.018C94.5781 140.201 94.7012 140.395 94.8574 140.598C95.0137 140.797 95.1895 141.012 95.3848 141.242L99.416 146H97.7812L94.4883 142.127C94.2031 141.783 93.9512 141.469 93.7324 141.184C93.5137 140.895 93.3438 140.615 93.2227 140.346C93.1016 140.072 93.041 139.791 93.041 139.502C93.041 139.057 93.1328 138.674 93.3164 138.354C93.5 138.033 93.7598 137.787 94.0957 137.615C94.4316 137.439 94.8242 137.352 95.2734 137.352C95.707 137.352 96.0801 137.439 96.3926 137.615C96.709 137.787 96.9512 138.016 97.1191 138.301C97.291 138.586 97.377 138.898 97.377 139.238C97.377 139.508 97.3281 139.754 97.2305 139.977C97.1328 140.199 96.998 140.402 96.8262 140.586C96.6543 140.77 96.4551 140.943 96.2285 141.107L94.4414 142.408C94.2344 142.576 94.0801 142.738 93.9785 142.895C93.8809 143.047 93.8164 143.188 93.7852 143.316C93.7539 143.445 93.7383 143.559 93.7383 143.656C93.7383 143.906 93.791 144.133 93.8965 144.336C94.0059 144.539 94.1641 144.701 94.3711 144.822C94.582 144.939 94.8379 144.998 95.1387 144.998C95.4629 144.998 95.7773 144.926 96.082 144.781C96.3867 144.633 96.6602 144.424 96.9023 144.154C97.1445 143.885 97.3359 143.562 97.4766 143.188C97.6211 142.812 97.6934 142.396 97.6934 141.939H98.9121C98.9121 142.354 98.8711 142.746 98.7891 143.117C98.7109 143.488 98.584 143.832 98.4082 144.148C98.2363 144.465 98.0098 144.748 97.7285 144.998C97.7012 145.025 97.6699 145.061 97.6348 145.104C97.6035 145.143 97.5723 145.176 97.541 145.203C97.2051 145.512 96.8281 145.742 96.4102 145.895C95.9961 146.043 95.5547 146.117 95.0859 146.117C94.5195 146.117 94.0293 146.014 93.6152 145.807C93.2012 145.6 92.8809 145.314 92.6543 144.951C92.4316 144.588 92.3203 144.172 92.3203 143.703C92.3203 143.355 92.3926 143.051 92.5371 142.789C92.6816 142.523 92.8789 142.277 93.1289 142.051C93.3828 141.82 93.6758 141.59 94.0078 141.359ZM106.617 142.818H104.396V141.652H106.617C107.004 141.652 107.316 141.59 107.555 141.465C107.793 141.34 107.967 141.168 108.076 140.949C108.189 140.727 108.246 140.473 108.246 140.188C108.246 139.918 108.189 139.666 108.076 139.432C107.967 139.193 107.793 139.002 107.555 138.857C107.316 138.713 107.004 138.641 106.617 138.641H104.848V146H103.377V137.469H106.617C107.277 137.469 107.838 137.586 108.299 137.82C108.764 138.051 109.117 138.371 109.359 138.781C109.602 139.188 109.723 139.652 109.723 140.176C109.723 140.727 109.602 141.199 109.359 141.594C109.117 141.988 108.764 142.291 108.299 142.502C107.838 142.713 107.277 142.818 106.617 142.818ZM114.404 144.729V141.705C114.404 141.479 114.363 141.283 114.281 141.119C114.199 140.955 114.074 140.828 113.906 140.738C113.742 140.648 113.535 140.604 113.285 140.604C113.055 140.604 112.855 140.643 112.688 140.721C112.52 140.799 112.389 140.904 112.295 141.037C112.201 141.17 112.154 141.32 112.154 141.488H110.748C110.748 141.238 110.809 140.996 110.93 140.762C111.051 140.527 111.227 140.318 111.457 140.135C111.688 139.951 111.963 139.807 112.283 139.701C112.604 139.596 112.963 139.543 113.361 139.543C113.838 139.543 114.26 139.623 114.627 139.783C114.998 139.943 115.289 140.186 115.5 140.51C115.715 140.83 115.822 141.232 115.822 141.717V144.535C115.822 144.824 115.842 145.084 115.881 145.314C115.924 145.541 115.984 145.738 116.062 145.906V146H114.615C114.549 145.848 114.496 145.654 114.457 145.42C114.422 145.182 114.404 144.951 114.404 144.729ZM114.609 142.145L114.621 143.018H113.607C113.346 143.018 113.115 143.043 112.916 143.094C112.717 143.141 112.551 143.211 112.418 143.305C112.285 143.398 112.186 143.512 112.119 143.645C112.053 143.777 112.02 143.928 112.02 144.096C112.02 144.264 112.059 144.418 112.137 144.559C112.215 144.695 112.328 144.803 112.477 144.881C112.629 144.959 112.812 144.998 113.027 144.998C113.316 144.998 113.568 144.939 113.783 144.822C114.002 144.701 114.174 144.555 114.299 144.383C114.424 144.207 114.49 144.041 114.498 143.885L114.955 144.512C114.908 144.672 114.828 144.844 114.715 145.027C114.602 145.211 114.453 145.387 114.27 145.555C114.09 145.719 113.873 145.854 113.619 145.959C113.369 146.064 113.08 146.117 112.752 146.117C112.338 146.117 111.969 146.035 111.645 145.871C111.32 145.703 111.066 145.479 110.883 145.197C110.699 144.912 110.607 144.59 110.607 144.23C110.607 143.895 110.67 143.598 110.795 143.34C110.924 143.078 111.111 142.859 111.357 142.684C111.607 142.508 111.912 142.375 112.271 142.285C112.631 142.191 113.041 142.145 113.502 142.145H114.609ZM119.045 145.309L120.768 139.66H122.279L119.736 146.967C119.678 147.123 119.602 147.293 119.508 147.477C119.414 147.66 119.291 147.834 119.139 147.998C118.99 148.166 118.805 148.301 118.582 148.402C118.359 148.508 118.09 148.561 117.773 148.561C117.648 148.561 117.527 148.549 117.41 148.525C117.297 148.506 117.189 148.484 117.088 148.461L117.082 147.383C117.121 147.387 117.168 147.391 117.223 147.395C117.281 147.398 117.328 147.4 117.363 147.4C117.598 147.4 117.793 147.371 117.949 147.312C118.105 147.258 118.232 147.168 118.33 147.043C118.432 146.918 118.518 146.75 118.588 146.539L119.045 145.309ZM118.072 139.66L119.578 144.406L119.83 145.895L118.852 146.146L116.549 139.66H118.072ZM124.5 140.949V146H123.088V139.66H124.418L124.5 140.949ZM124.271 142.596L123.791 142.59C123.791 142.152 123.846 141.748 123.955 141.377C124.064 141.006 124.225 140.684 124.436 140.41C124.646 140.133 124.908 139.92 125.221 139.771C125.537 139.619 125.902 139.543 126.316 139.543C126.605 139.543 126.869 139.586 127.107 139.672C127.35 139.754 127.559 139.885 127.734 140.064C127.914 140.244 128.051 140.475 128.145 140.756C128.242 141.037 128.291 141.377 128.291 141.775V146H126.879V141.898C126.879 141.59 126.832 141.348 126.738 141.172C126.648 140.996 126.518 140.871 126.346 140.797C126.178 140.719 125.977 140.68 125.742 140.68C125.477 140.68 125.25 140.73 125.062 140.832C124.879 140.934 124.729 141.072 124.611 141.248C124.494 141.424 124.408 141.627 124.354 141.857C124.299 142.088 124.271 142.334 124.271 142.596ZM128.203 142.221L127.541 142.367C127.541 141.984 127.594 141.623 127.699 141.283C127.809 140.939 127.967 140.639 128.174 140.381C128.385 140.119 128.645 139.914 128.953 139.766C129.262 139.617 129.615 139.543 130.014 139.543C130.338 139.543 130.627 139.588 130.881 139.678C131.139 139.764 131.357 139.9 131.537 140.088C131.717 140.275 131.854 140.52 131.947 140.82C132.041 141.117 132.088 141.477 132.088 141.898V146H130.67V141.893C130.67 141.572 130.623 141.324 130.529 141.148C130.439 140.973 130.311 140.852 130.143 140.785C129.975 140.715 129.773 140.68 129.539 140.68C129.32 140.68 129.127 140.721 128.959 140.803C128.795 140.881 128.656 140.992 128.543 141.137C128.43 141.277 128.344 141.439 128.285 141.623C128.23 141.807 128.203 142.006 128.203 142.221ZM136.336 146.117C135.867 146.117 135.443 146.041 135.064 145.889C134.689 145.732 134.369 145.516 134.104 145.238C133.842 144.961 133.641 144.635 133.5 144.26C133.359 143.885 133.289 143.48 133.289 143.047V142.812C133.289 142.316 133.361 141.867 133.506 141.465C133.65 141.062 133.852 140.719 134.109 140.434C134.367 140.145 134.672 139.924 135.023 139.771C135.375 139.619 135.756 139.543 136.166 139.543C136.619 139.543 137.016 139.619 137.355 139.771C137.695 139.924 137.977 140.139 138.199 140.416C138.426 140.689 138.594 141.016 138.703 141.395C138.816 141.773 138.873 142.191 138.873 142.648V143.252H133.975V142.238H137.479V142.127C137.471 141.873 137.42 141.635 137.326 141.412C137.236 141.189 137.098 141.01 136.91 140.873C136.723 140.736 136.473 140.668 136.16 140.668C135.926 140.668 135.717 140.719 135.533 140.82C135.354 140.918 135.203 141.061 135.082 141.248C134.961 141.436 134.867 141.662 134.801 141.928C134.738 142.189 134.707 142.484 134.707 142.812V143.047C134.707 143.324 134.744 143.582 134.818 143.82C134.896 144.055 135.01 144.26 135.158 144.436C135.307 144.611 135.486 144.75 135.697 144.852C135.908 144.949 136.148 144.998 136.418 144.998C136.758 144.998 137.061 144.93 137.326 144.793C137.592 144.656 137.822 144.463 138.018 144.213L138.762 144.934C138.625 145.133 138.447 145.324 138.229 145.508C138.01 145.688 137.742 145.834 137.426 145.947C137.113 146.061 136.75 146.117 136.336 146.117ZM141.375 141.014V146H139.963V139.66H141.293L141.375 141.014ZM141.123 142.596L140.666 142.59C140.67 142.141 140.732 141.729 140.854 141.354C140.979 140.979 141.15 140.656 141.369 140.387C141.592 140.117 141.857 139.91 142.166 139.766C142.475 139.617 142.818 139.543 143.197 139.543C143.502 139.543 143.777 139.586 144.023 139.672C144.273 139.754 144.486 139.889 144.662 140.076C144.842 140.264 144.979 140.508 145.072 140.809C145.166 141.105 145.213 141.471 145.213 141.904V146H143.795V141.898C143.795 141.594 143.75 141.354 143.66 141.178C143.574 140.998 143.447 140.871 143.279 140.797C143.115 140.719 142.91 140.68 142.664 140.68C142.422 140.68 142.205 140.73 142.014 140.832C141.822 140.934 141.66 141.072 141.527 141.248C141.398 141.424 141.299 141.627 141.229 141.857C141.158 142.088 141.123 142.334 141.123 142.596ZM149.561 139.66V140.691H145.986V139.66H149.561ZM147.018 138.107H148.43V144.248C148.43 144.443 148.457 144.594 148.512 144.699C148.57 144.801 148.65 144.869 148.752 144.904C148.854 144.939 148.973 144.957 149.109 144.957C149.207 144.957 149.301 144.951 149.391 144.939C149.48 144.928 149.553 144.916 149.607 144.904L149.613 145.982C149.496 146.018 149.359 146.049 149.203 146.076C149.051 146.104 148.875 146.117 148.676 146.117C148.352 146.117 148.064 146.061 147.814 145.947C147.564 145.83 147.369 145.641 147.229 145.379C147.088 145.117 147.018 144.77 147.018 144.336V138.107ZM153.779 137.469H156.797C157.445 137.469 157.998 137.566 158.455 137.762C158.912 137.957 159.262 138.246 159.504 138.629C159.75 139.008 159.873 139.477 159.873 140.035C159.873 140.461 159.795 140.836 159.639 141.16C159.482 141.484 159.262 141.758 158.977 141.98C158.691 142.199 158.352 142.369 157.957 142.49L157.512 142.707H154.799L154.787 141.541H156.82C157.172 141.541 157.465 141.479 157.699 141.354C157.934 141.229 158.109 141.059 158.227 140.844C158.348 140.625 158.408 140.379 158.408 140.105C158.408 139.809 158.35 139.551 158.232 139.332C158.119 139.109 157.943 138.939 157.705 138.822C157.467 138.701 157.164 138.641 156.797 138.641H155.25V146H153.779V137.469ZM158.648 146L156.645 142.168L158.186 142.162L160.219 145.924V146H158.648ZM163.992 146.117C163.523 146.117 163.1 146.041 162.721 145.889C162.346 145.732 162.025 145.516 161.76 145.238C161.498 144.961 161.297 144.635 161.156 144.26C161.016 143.885 160.945 143.48 160.945 143.047V142.812C160.945 142.316 161.018 141.867 161.162 141.465C161.307 141.062 161.508 140.719 161.766 140.434C162.023 140.145 162.328 139.924 162.68 139.771C163.031 139.619 163.412 139.543 163.822 139.543C164.275 139.543 164.672 139.619 165.012 139.771C165.352 139.924 165.633 140.139 165.855 140.416C166.082 140.689 166.25 141.016 166.359 141.395C166.473 141.773 166.529 142.191 166.529 142.648V143.252H161.631V142.238H165.135V142.127C165.127 141.873 165.076 141.635 164.982 141.412C164.893 141.189 164.754 141.01 164.566 140.873C164.379 140.736 164.129 140.668 163.816 140.668C163.582 140.668 163.373 140.719 163.189 140.82C163.01 140.918 162.859 141.061 162.738 141.248C162.617 141.436 162.523 141.662 162.457 141.928C162.395 142.189 162.363 142.484 162.363 142.812V143.047C162.363 143.324 162.4 143.582 162.475 143.82C162.553 144.055 162.666 144.26 162.814 144.436C162.963 144.611 163.143 144.75 163.354 144.852C163.564 144.949 163.805 144.998 164.074 144.998C164.414 144.998 164.717 144.93 164.982 144.793C165.248 144.656 165.479 144.463 165.674 144.213L166.418 144.934C166.281 145.133 166.104 145.324 165.885 145.508C165.666 145.688 165.398 145.834 165.082 145.947C164.77 146.061 164.406 146.117 163.992 146.117ZM169.541 146H168.129V139.051C168.129 138.578 168.217 138.182 168.393 137.861C168.572 137.537 168.828 137.293 169.16 137.129C169.492 136.961 169.885 136.877 170.338 136.877C170.479 136.877 170.617 136.887 170.754 136.906C170.891 136.922 171.023 136.947 171.152 136.982L171.117 138.072C171.039 138.053 170.953 138.039 170.859 138.031C170.77 138.023 170.672 138.02 170.566 138.02C170.352 138.02 170.166 138.061 170.01 138.143C169.857 138.221 169.74 138.336 169.658 138.488C169.58 138.641 169.541 138.828 169.541 139.051V146ZM170.848 139.66V140.691H167.156V139.66H170.848ZM175.688 144.506V139.66H177.105V146H175.77L175.688 144.506ZM175.887 143.188L176.361 143.176C176.361 143.602 176.314 143.994 176.221 144.354C176.127 144.709 175.982 145.02 175.787 145.285C175.592 145.547 175.342 145.752 175.037 145.9C174.732 146.045 174.367 146.117 173.941 146.117C173.633 146.117 173.35 146.072 173.092 145.982C172.834 145.893 172.611 145.754 172.424 145.566C172.24 145.379 172.098 145.135 171.996 144.834C171.895 144.533 171.844 144.174 171.844 143.756V139.66H173.256V143.768C173.256 143.998 173.283 144.191 173.338 144.348C173.393 144.5 173.467 144.623 173.561 144.717C173.654 144.811 173.764 144.877 173.889 144.916C174.014 144.955 174.146 144.975 174.287 144.975C174.689 144.975 175.006 144.896 175.236 144.74C175.471 144.58 175.637 144.365 175.734 144.096C175.836 143.826 175.887 143.523 175.887 143.188ZM179.953 141.014V146H178.541V139.66H179.871L179.953 141.014ZM179.701 142.596L179.244 142.59C179.248 142.141 179.311 141.729 179.432 141.354C179.557 140.979 179.729 140.656 179.947 140.387C180.17 140.117 180.436 139.91 180.744 139.766C181.053 139.617 181.396 139.543 181.775 139.543C182.08 139.543 182.355 139.586 182.602 139.672C182.852 139.754 183.064 139.889 183.24 140.076C183.42 140.264 183.557 140.508 183.65 140.809C183.744 141.105 183.791 141.471 183.791 141.904V146H182.373V141.898C182.373 141.594 182.328 141.354 182.238 141.178C182.152 140.998 182.025 140.871 181.857 140.797C181.693 140.719 181.488 140.68 181.242 140.68C181 140.68 180.783 140.73 180.592 140.832C180.4 140.934 180.238 141.072 180.105 141.248C179.977 141.424 179.877 141.627 179.807 141.857C179.736 142.088 179.701 142.334 179.701 142.596ZM189.1 144.688V137H190.518V146H189.234L189.1 144.688ZM184.975 142.9V142.777C184.975 142.297 185.031 141.859 185.145 141.465C185.258 141.066 185.422 140.725 185.637 140.439C185.852 140.15 186.113 139.93 186.422 139.777C186.73 139.621 187.078 139.543 187.465 139.543C187.848 139.543 188.184 139.617 188.473 139.766C188.762 139.914 189.008 140.127 189.211 140.404C189.414 140.678 189.576 141.006 189.697 141.389C189.818 141.768 189.904 142.189 189.955 142.654V143.047C189.904 143.5 189.818 143.914 189.697 144.289C189.576 144.664 189.414 144.988 189.211 145.262C189.008 145.535 188.76 145.746 188.467 145.895C188.178 146.043 187.84 146.117 187.453 146.117C187.07 146.117 186.725 146.037 186.416 145.877C186.111 145.717 185.852 145.492 185.637 145.203C185.422 144.914 185.258 144.574 185.145 144.184C185.031 143.789 184.975 143.361 184.975 142.9ZM186.387 142.777V142.9C186.387 143.189 186.412 143.459 186.463 143.709C186.518 143.959 186.602 144.18 186.715 144.371C186.828 144.559 186.975 144.707 187.154 144.816C187.338 144.922 187.557 144.975 187.811 144.975C188.131 144.975 188.395 144.904 188.602 144.764C188.809 144.623 188.971 144.434 189.088 144.195C189.209 143.953 189.291 143.684 189.334 143.387V142.326C189.311 142.096 189.262 141.881 189.188 141.682C189.117 141.482 189.021 141.309 188.9 141.16C188.779 141.008 188.629 140.891 188.449 140.809C188.273 140.723 188.064 140.68 187.822 140.68C187.564 140.68 187.346 140.734 187.166 140.844C186.986 140.953 186.838 141.104 186.721 141.295C186.607 141.486 186.523 141.709 186.469 141.963C186.414 142.217 186.387 142.488 186.387 142.777ZM198.445 138.605L195.896 146H194.355L197.566 137.469H198.551L198.445 138.605ZM200.578 146L198.023 138.605L197.912 137.469H198.902L202.125 146H200.578ZM200.455 142.836V144.002H195.814V142.836H200.455ZM204.234 141.014V146H202.822V139.66H204.152L204.234 141.014ZM203.982 142.596L203.525 142.59C203.529 142.141 203.592 141.729 203.713 141.354C203.838 140.979 204.01 140.656 204.229 140.387C204.451 140.117 204.717 139.91 205.025 139.766C205.334 139.617 205.678 139.543 206.057 139.543C206.361 139.543 206.637 139.586 206.883 139.672C207.133 139.754 207.346 139.889 207.521 140.076C207.701 140.264 207.838 140.508 207.932 140.809C208.025 141.105 208.072 141.471 208.072 141.904V146H206.654V141.898C206.654 141.594 206.609 141.354 206.52 141.178C206.434 140.998 206.307 140.871 206.139 140.797C205.975 140.719 205.77 140.68 205.523 140.68C205.281 140.68 205.064 140.73 204.873 140.832C204.682 140.934 204.52 141.072 204.387 141.248C204.258 141.424 204.158 141.627 204.088 141.857C204.018 142.088 203.982 142.334 203.982 142.596ZM213.381 144.688V137H214.799V146H213.516L213.381 144.688ZM209.256 142.9V142.777C209.256 142.297 209.312 141.859 209.426 141.465C209.539 141.066 209.703 140.725 209.918 140.439C210.133 140.15 210.395 139.93 210.703 139.777C211.012 139.621 211.359 139.543 211.746 139.543C212.129 139.543 212.465 139.617 212.754 139.766C213.043 139.914 213.289 140.127 213.492 140.404C213.695 140.678 213.857 141.006 213.979 141.389C214.1 141.768 214.186 142.189 214.236 142.654V143.047C214.186 143.5 214.1 143.914 213.979 144.289C213.857 144.664 213.695 144.988 213.492 145.262C213.289 145.535 213.041 145.746 212.748 145.895C212.459 146.043 212.121 146.117 211.734 146.117C211.352 146.117 211.006 146.037 210.697 145.877C210.393 145.717 210.133 145.492 209.918 145.203C209.703 144.914 209.539 144.574 209.426 144.184C209.312 143.789 209.256 143.361 209.256 142.9ZM210.668 142.777V142.9C210.668 143.189 210.693 143.459 210.744 143.709C210.799 143.959 210.883 144.18 210.996 144.371C211.109 144.559 211.256 144.707 211.436 144.816C211.619 144.922 211.838 144.975 212.092 144.975C212.412 144.975 212.676 144.904 212.883 144.764C213.09 144.623 213.252 144.434 213.369 144.195C213.49 143.953 213.572 143.684 213.615 143.387V142.326C213.592 142.096 213.543 141.881 213.469 141.682C213.398 141.482 213.303 141.309 213.182 141.16C213.061 141.008 212.91 140.891 212.73 140.809C212.555 140.723 212.346 140.68 212.104 140.68C211.846 140.68 211.627 140.734 211.447 140.844C211.268 140.953 211.119 141.104 211.002 141.295C210.889 141.486 210.805 141.709 210.75 141.963C210.695 142.217 210.668 142.488 210.668 142.777ZM120.486 151.469V160H119.016V151.469H120.486ZM123.967 155.201V156.367H120.111V155.201H123.967ZM124.453 151.469V152.641H120.111V151.469H124.453ZM127.904 152.605L125.355 160H123.814L127.025 151.469H128.01L127.904 152.605ZM130.037 160L127.482 152.605L127.371 151.469H128.361L131.584 160H130.037ZM129.914 156.836V158.002H125.273V156.836H129.914ZM136.963 158.863L139.207 160.645L138.252 161.482L136.049 159.719L136.963 158.863ZM139.225 155.5V155.969C139.225 156.613 139.141 157.191 138.973 157.703C138.805 158.215 138.564 158.65 138.252 159.01C137.939 159.369 137.566 159.645 137.133 159.836C136.699 160.023 136.219 160.117 135.691 160.117C135.168 160.117 134.689 160.023 134.256 159.836C133.826 159.645 133.453 159.369 133.137 159.01C132.82 158.65 132.574 158.215 132.398 157.703C132.227 157.191 132.141 156.613 132.141 155.969V155.5C132.141 154.855 132.227 154.279 132.398 153.771C132.57 153.26 132.812 152.824 133.125 152.465C133.441 152.102 133.814 151.826 134.244 151.639C134.678 151.447 135.156 151.352 135.68 151.352C136.207 151.352 136.688 151.447 137.121 151.639C137.559 151.826 137.934 152.102 138.246 152.465C138.559 152.824 138.799 153.26 138.967 153.771C139.139 154.279 139.225 154.855 139.225 155.5ZM137.748 155.969V155.488C137.748 155.012 137.701 154.592 137.607 154.229C137.518 153.861 137.383 153.555 137.203 153.309C137.027 153.059 136.811 152.871 136.553 152.746C136.299 152.617 136.008 152.553 135.68 152.553C135.359 152.553 135.072 152.617 134.818 152.746C134.564 152.871 134.348 153.059 134.168 153.309C133.988 153.555 133.852 153.861 133.758 154.229C133.664 154.592 133.617 155.012 133.617 155.488V155.969C133.617 156.445 133.664 156.867 133.758 157.234C133.852 157.602 133.988 157.912 134.168 158.166C134.352 158.416 134.57 158.605 134.824 158.734C135.082 158.859 135.371 158.922 135.691 158.922C136.02 158.922 136.311 158.859 136.564 158.734C136.818 158.605 137.033 158.416 137.209 158.166C137.385 157.912 137.518 157.602 137.607 157.234C137.701 156.867 137.748 156.445 137.748 155.969Z" fill="#068181"/>
<g filter="url(#filter1_d_11_92)">
<rect x="59" y="185" width="140" height="37" rx="9" fill="#D9F4FF"/>
</g>
<g filter="url(#filter2_d_11_92)">
<path d="M73.42 203.8C73.42 202.976 73.604 202.24 73.972 201.592C74.348 200.936 74.856 200.428 75.496 200.068C76.144 199.7 76.868 199.516 77.668 199.516C78.604 199.516 79.424 199.756 80.128 200.236C80.832 200.716 81.324 201.38 81.604 202.228H79.672C79.48 201.828 79.208 201.528 78.856 201.328C78.512 201.128 78.112 201.028 77.656 201.028C77.168 201.028 76.732 201.144 76.348 201.376C75.972 201.6 75.676 201.92 75.46 202.336C75.252 202.752 75.148 203.24 75.148 203.8C75.148 204.352 75.252 204.84 75.46 205.264C75.676 205.68 75.972 206.004 76.348 206.236C76.732 206.46 77.168 206.572 77.656 206.572C78.112 206.572 78.512 206.472 78.856 206.272C79.208 206.064 79.48 205.76 79.672 205.36H81.604C81.324 206.216 80.832 206.884 80.128 207.364C79.432 207.836 78.612 208.072 77.668 208.072C76.868 208.072 76.144 207.892 75.496 207.532C74.856 207.164 74.348 206.656 73.972 206.008C73.604 205.36 73.42 204.624 73.42 203.8ZM89.3149 201.352V208H87.6229V207.16C87.4069 207.448 87.1229 207.676 86.7709 207.844C86.4269 208.004 86.0509 208.084 85.6429 208.084C85.1229 208.084 84.6629 207.976 84.2629 207.76C83.8629 207.536 83.5469 207.212 83.3149 206.788C83.0909 206.356 82.9789 205.844 82.9789 205.252V201.352H84.6589V205.012C84.6589 205.54 84.7909 205.948 85.0549 206.236C85.3189 206.516 85.6789 206.656 86.1349 206.656C86.5989 206.656 86.9629 206.516 87.2269 206.236C87.4909 205.948 87.6229 205.54 87.6229 205.012V201.352H89.3149ZM93.5165 208.108C92.9725 208.108 92.4845 208.012 92.0525 207.82C91.6205 207.62 91.2765 207.352 91.0205 207.016C90.7725 206.68 90.6365 206.308 90.6125 205.9H92.3045C92.3365 206.156 92.4605 206.368 92.6765 206.536C92.9005 206.704 93.1765 206.788 93.5045 206.788C93.8245 206.788 94.0725 206.724 94.2485 206.596C94.4325 206.468 94.5245 206.304 94.5245 206.104C94.5245 205.888 94.4125 205.728 94.1885 205.624C93.9725 205.512 93.6245 205.392 93.1445 205.264C92.6485 205.144 92.2405 205.02 91.9205 204.892C91.6085 204.764 91.3365 204.568 91.1045 204.304C90.8805 204.04 90.7685 203.684 90.7685 203.236C90.7685 202.868 90.8725 202.532 91.0805 202.228C91.2965 201.924 91.6005 201.684 91.9925 201.508C92.3925 201.332 92.8605 201.244 93.3965 201.244C94.1885 201.244 94.8205 201.444 95.2925 201.844C95.7645 202.236 96.0245 202.768 96.0725 203.44H94.4645C94.4405 203.176 94.3285 202.968 94.1285 202.816C93.9365 202.656 93.6765 202.576 93.3485 202.576C93.0445 202.576 92.8085 202.632 92.6405 202.744C92.4805 202.856 92.4005 203.012 92.4005 203.212C92.4005 203.436 92.5125 203.608 92.7365 203.728C92.9605 203.84 93.3085 203.956 93.7805 204.076C94.2605 204.196 94.6565 204.32 94.9685 204.448C95.2805 204.576 95.5485 204.776 95.7725 205.048C96.0045 205.312 96.1245 205.664 96.1325 206.104C96.1325 206.488 96.0245 206.832 95.8085 207.136C95.6005 207.44 95.2965 207.68 94.8965 207.856C94.5045 208.024 94.0445 208.108 93.5165 208.108ZM99.4676 202.732V205.948C99.4676 206.172 99.5196 206.336 99.6236 206.44C99.7356 206.536 99.9196 206.584 100.176 206.584H100.956V208H99.8996C98.4836 208 97.7756 207.312 97.7756 205.936V202.732H96.9836V201.352H97.7756V199.708H99.4676V201.352H100.956V202.732H99.4676ZM105.116 208.108C104.476 208.108 103.9 207.968 103.388 207.688C102.876 207.4 102.472 206.996 102.176 206.476C101.888 205.956 101.744 205.356 101.744 204.676C101.744 203.996 101.892 203.396 102.188 202.876C102.492 202.356 102.904 201.956 103.424 201.676C103.944 201.388 104.524 201.244 105.164 201.244C105.804 201.244 106.384 201.388 106.904 201.676C107.424 201.956 107.832 202.356 108.128 202.876C108.432 203.396 108.584 203.996 108.584 204.676C108.584 205.356 108.428 205.956 108.116 206.476C107.812 206.996 107.396 207.4 106.868 207.688C106.348 207.968 105.764 208.108 105.116 208.108ZM105.116 206.644C105.42 206.644 105.704 206.572 105.968 206.428C106.24 206.276 106.456 206.052 106.616 205.756C106.776 205.46 106.856 205.1 106.856 204.676C106.856 204.044 106.688 203.56 106.352 203.224C106.024 202.88 105.62 202.708 105.14 202.708C104.66 202.708 104.256 202.88 103.928 203.224C103.608 203.56 103.448 204.044 103.448 204.676C103.448 205.308 103.604 205.796 103.916 206.14C104.236 206.476 104.636 206.644 105.116 206.644ZM118.072 201.256C118.888 201.256 119.544 201.508 120.04 202.012C120.544 202.508 120.796 203.204 120.796 204.1V208H119.116V204.328C119.116 203.808 118.984 203.412 118.72 203.14C118.456 202.86 118.096 202.72 117.64 202.72C117.184 202.72 116.82 202.86 116.548 203.14C116.284 203.412 116.152 203.808 116.152 204.328V208H114.472V204.328C114.472 203.808 114.34 203.412 114.076 203.14C113.812 202.86 113.452 202.72 112.996 202.72C112.532 202.72 112.164 202.86 111.892 203.14C111.628 203.412 111.496 203.808 111.496 204.328V208H109.816V201.352H111.496V202.156C111.712 201.876 111.988 201.656 112.324 201.496C112.668 201.336 113.044 201.256 113.452 201.256C113.972 201.256 114.436 201.368 114.844 201.592C115.252 201.808 115.568 202.12 115.792 202.528C116.008 202.144 116.32 201.836 116.728 201.604C117.144 201.372 117.592 201.256 118.072 201.256ZM128.571 204.532C128.571 204.772 128.555 204.988 128.523 205.18H123.663C123.703 205.66 123.871 206.036 124.167 206.308C124.463 206.58 124.827 206.716 125.259 206.716C125.883 206.716 126.327 206.448 126.591 205.912H128.403C128.211 206.552 127.843 207.08 127.299 207.496C126.755 207.904 126.087 208.108 125.295 208.108C124.655 208.108 124.079 207.968 123.567 207.688C123.063 207.4 122.667 206.996 122.379 206.476C122.099 205.956 121.958 205.356 121.958 204.676C121.958 203.988 122.099 203.384 122.379 202.864C122.659 202.344 123.051 201.944 123.555 201.664C124.059 201.384 124.639 201.244 125.295 201.244C125.927 201.244 126.491 201.38 126.987 201.652C127.491 201.924 127.879 202.312 128.151 202.816C128.431 203.312 128.571 203.884 128.571 204.532ZM126.831 204.052C126.823 203.62 126.667 203.276 126.363 203.02C126.059 202.756 125.687 202.624 125.247 202.624C124.831 202.624 124.479 202.752 124.191 203.008C123.911 203.256 123.739 203.604 123.675 204.052H126.831ZM131.477 202.384C131.693 202.032 131.973 201.756 132.317 201.556C132.669 201.356 133.069 201.256 133.517 201.256V203.02H133.073C132.545 203.02 132.145 203.144 131.873 203.392C131.609 203.64 131.477 204.072 131.477 204.688V208H129.797V201.352H131.477V202.384ZM140.4 208.084C139.816 208.084 139.288 207.984 138.816 207.784C138.352 207.584 137.984 207.296 137.712 206.92C137.44 206.544 137.3 206.1 137.292 205.588H139.092C139.116 205.932 139.236 206.204 139.452 206.404C139.676 206.604 139.98 206.704 140.364 206.704C140.756 206.704 141.064 206.612 141.288 206.428C141.512 206.236 141.624 205.988 141.624 205.684C141.624 205.436 141.548 205.232 141.396 205.072C141.244 204.912 141.052 204.788 140.82 204.7C140.596 204.604 140.284 204.5 139.884 204.388C139.34 204.228 138.896 204.072 138.552 203.92C138.216 203.76 137.924 203.524 137.676 203.212C137.436 202.892 137.316 202.468 137.316 201.94C137.316 201.444 137.44 201.012 137.688 200.644C137.936 200.276 138.284 199.996 138.732 199.804C139.18 199.604 139.692 199.504 140.268 199.504C141.132 199.504 141.832 199.716 142.368 200.14C142.912 200.556 143.212 201.14 143.268 201.892H141.42C141.404 201.604 141.28 201.368 141.048 201.184C140.824 200.992 140.524 200.896 140.148 200.896C139.82 200.896 139.556 200.98 139.356 201.148C139.164 201.316 139.068 201.56 139.068 201.88C139.068 202.104 139.14 202.292 139.284 202.444C139.436 202.588 139.62 202.708 139.836 202.804C140.06 202.892 140.372 202.996 140.772 203.116C141.316 203.276 141.76 203.436 142.104 203.596C142.448 203.756 142.744 203.996 142.992 204.316C143.24 204.636 143.364 205.056 143.364 205.576C143.364 206.024 143.248 206.44 143.016 206.824C142.784 207.208 142.444 207.516 141.996 207.748C141.548 207.972 141.016 208.084 140.4 208.084ZM151 204.532C151 204.772 150.984 204.988 150.952 205.18H146.092C146.132 205.66 146.3 206.036 146.596 206.308C146.892 206.58 147.256 206.716 147.688 206.716C148.312 206.716 148.756 206.448 149.02 205.912H150.832C150.64 206.552 150.272 207.08 149.728 207.496C149.184 207.904 148.516 208.108 147.724 208.108C147.084 208.108 146.508 207.968 145.996 207.688C145.492 207.4 145.096 206.996 144.808 206.476C144.528 205.956 144.388 205.356 144.388 204.676C144.388 203.988 144.528 203.384 144.808 202.864C145.088 202.344 145.48 201.944 145.984 201.664C146.488 201.384 147.068 201.244 147.724 201.244C148.356 201.244 148.92 201.38 149.416 201.652C149.92 201.924 150.308 202.312 150.58 202.816C150.86 203.312 151 203.884 151 204.532ZM149.26 204.052C149.252 203.62 149.096 203.276 148.792 203.02C148.488 202.756 148.116 202.624 147.676 202.624C147.26 202.624 146.908 202.752 146.62 203.008C146.34 203.256 146.168 203.604 146.104 204.052H149.26ZM153.906 202.384C154.122 202.032 154.402 201.756 154.746 201.556C155.098 201.356 155.498 201.256 155.946 201.256V203.02H155.502C154.974 203.02 154.574 203.144 154.302 203.392C154.038 203.64 153.906 204.072 153.906 204.688V208H152.226V201.352H153.906V202.384ZM159.85 206.452L161.53 201.352H163.318L160.858 208H158.818L156.37 201.352H158.17L159.85 206.452ZM165.114 200.56C164.818 200.56 164.57 200.468 164.37 200.284C164.178 200.092 164.082 199.856 164.082 199.576C164.082 199.296 164.178 199.064 164.37 198.88C164.57 198.688 164.818 198.592 165.114 198.592C165.41 198.592 165.654 198.688 165.846 198.88C166.046 199.064 166.146 199.296 166.146 199.576C166.146 199.856 166.046 200.092 165.846 200.284C165.654 200.468 165.41 200.56 165.114 200.56ZM165.942 201.352V208H164.262V201.352H165.942ZM167.169 204.676C167.169 203.988 167.309 203.388 167.589 202.876C167.869 202.356 168.257 201.956 168.753 201.676C169.249 201.388 169.817 201.244 170.457 201.244C171.281 201.244 171.961 201.452 172.497 201.868C173.041 202.276 173.405 202.852 173.589 203.596H171.777C171.681 203.308 171.517 203.084 171.285 202.924C171.061 202.756 170.781 202.672 170.445 202.672C169.965 202.672 169.585 202.848 169.305 203.2C169.025 203.544 168.885 204.036 168.885 204.676C168.885 205.308 169.025 205.8 169.305 206.152C169.585 206.496 169.965 206.668 170.445 206.668C171.125 206.668 171.569 206.364 171.777 205.756H173.589C173.405 206.476 173.041 207.048 172.497 207.472C171.953 207.896 171.273 208.108 170.457 208.108C169.817 208.108 169.249 207.968 168.753 207.688C168.257 207.4 167.869 207 167.589 206.488C167.309 205.968 167.169 205.364 167.169 204.676ZM181 204.532C181 204.772 180.984 204.988 180.952 205.18H176.092C176.132 205.66 176.3 206.036 176.596 206.308C176.892 206.58 177.256 206.716 177.688 206.716C178.312 206.716 178.756 206.448 179.02 205.912H180.832C180.64 206.552 180.272 207.08 179.728 207.496C179.184 207.904 178.516 208.108 177.724 208.108C177.084 208.108 176.508 207.968 175.996 207.688C175.492 207.4 175.096 206.996 174.808 206.476C174.528 205.956 174.388 205.356 174.388 204.676C174.388 203.988 174.528 203.384 174.808 202.864C175.088 202.344 175.48 201.944 175.984 201.664C176.488 201.384 177.068 201.244 177.724 201.244C178.356 201.244 178.92 201.38 179.416 201.652C179.92 201.924 180.308 202.312 180.58 202.816C180.86 203.312 181 203.884 181 204.532ZM179.26 204.052C179.252 203.62 179.096 203.276 178.792 203.02C178.488 202.756 178.116 202.624 177.676 202.624C177.26 202.624 176.908 202.752 176.62 203.008C176.34 203.256 176.168 203.604 176.104 204.052H179.26Z" fill="#016170"/>
</g>
<defs>
<filter id="filter0_d_11_92" x="55" y="12" width="126" height="126" filterUnits="userSpaceOnUse" color-interpolation-filters="sRGB">
<feFlood flood-opacity="0" result="BackgroundImageFix"/>
<feColorMatrix in="SourceAlpha" type="matrix" values="0 0 0 0 0 0 0 0 0 0 0 0 0 0 0 0 0 0 127 0" result="hardAlpha"/>
<feOffset dy="20"/>
<feGaussianBlur stdDeviation="20"/>
<feComposite in2="hardAlpha" operator="out"/>
<feColorMatrix type="matrix" values="0 0 0 0 0 0 0 0 0 0 0 0 0 0 0 0 0 0 0.25 0"/>
<feBlend mode="normal" in2="BackgroundImageFix" result="effect1_dropShadow_11_92"/>
<feBlend mode="normal" in="SourceGraphic" in2="effect1_dropShadow_11_92" result="shape"/>
</filter>
<filter id="filter1_d_11_92" x="43" y="175" width="172" height="69" filterUnits="userSpaceOnUse" color-interpolation-filters="sRGB">
<feFlood flood-opacity="0" result="BackgroundImageFix"/>
<feColorMatrix in="SourceAlpha" type="matrix" values="0 0 0 0 0 0 0 0 0 0 0 0 0 0 0 0 0 0 127 0" result="hardAlpha"/>
<feOffset dy="6"/>
<feGaussianBlur stdDeviation="8"/>
<feComposite in2="hardAlpha" operator="out"/>
<feColorMatrix type="matrix" values="0 0 0 0 0 0 0 0 0 0 0 0 0 0 0 0 0 0 0.1 0"/>
<feBlend mode="normal" in2="BackgroundImageFix" result="effect1_dropShadow_11_92"/>
<feBlend mode="normal" in="SourceGraphic" in2="effect1_dropShadow_11_92" result="shape"/>
</filter>
<filter id="filter2_d_11_92" x="57.42" y="186.592" width="139.58" height="41.516" filterUnits="userSpaceOnUse" color-interpolation-filters="sRGB">
<feFlood flood-opacity="0" result="BackgroundImageFix"/>
<feColorMatrix in="SourceAlpha" type="matrix" values="0 0 0 0 0 0 0 0 0 0 0 0 0 0 0 0 0 0 127 0" result="hardAlpha"/>
<feOffset dy="4"/>
<feGaussianBlur stdDeviation="8"/>
<feComposite in2="hardAlpha" operator="out"/>
<feColorMatrix type="matrix" values="0 0 0 0 0 0 0 0 0 0 0 0 0 0 0 0 0 0 0.1 0"/>
<feBlend mode="normal" in2="BackgroundImageFix" result="effect1_dropShadow_11_92"/>
<feBlend mode="normal" in="SourceGraphic" in2="effect1_dropShadow_11_92" result="shape"/>
</filter>
</defs>
</svg>
