<svg width="22" height="22" viewBox="0 0 22 22" fill="none" xmlns="http://www.w3.org/2000/svg">
<path d="M12.5714 0C10.0708 0 7.67262 1.15892 5.90442 3.22182C4.13622 5.28472 3.14286 8.08261 3.14286 11H0L4.07524 15.7544L4.14857 15.9256L8.38095 11H5.23809C5.23809 6.27 8.51714 2.44444 12.5714 2.44444C16.6257 2.44444 19.9048 6.27 19.9048 11C19.9048 15.73 16.6257 19.5555 12.5714 19.5555C10.5495 19.5555 8.71619 18.59 7.39619 17.0378L5.90857 18.7733C6.78167 19.7976 7.81994 20.61 8.9635 21.1638C10.1071 21.7176 11.3333 22.0018 12.5714 22C15.072 22 17.4702 20.8411 19.2384 18.7782C21.0066 16.7153 22 13.9174 22 11C22 8.08261 21.0066 5.28472 19.2384 3.22182C17.4702 1.15892 15.072 4.34724e-08 12.5714 0ZM11.5238 6.11111V12.2222L15.9762 15.3022L16.7829 13.7378L13.0952 11.1833V6.11111H11.5238Z" fill="#111111"/>
</svg>
