<svg width="24" height="23" viewBox="0 0 24 23" fill="none" xmlns="http://www.w3.org/2000/svg">
<path d="M23 11.5587C23.0036 13.6554 22.3541 15.7053 21.1349 17.4448C20.1294 18.8846 18.77 20.0644 17.1767 20.8798C15.5834 21.6952 13.8055 22.1211 12 22.1199C10.1945 22.1211 8.41654 21.6952 6.82328 20.8798C5.23002 20.0644 3.87056 18.8846 2.86511 17.4448C1.90778 16.0747 1.2981 14.5083 1.08495 12.8712C0.871801 11.2341 1.06111 9.57176 1.63769 8.01754C2.21428 6.46333 3.1621 5.06043 4.40519 3.9213C5.64828 2.78218 7.15205 1.93851 8.79595 1.45795C10.4398 0.97738 12.1782 0.873276 13.8715 1.15398C15.5649 1.43468 17.1662 2.09239 18.5471 3.07437C19.928 4.05635 21.05 5.33529 21.8233 6.80866C22.5966 8.28204 22.9996 9.90886 23 11.5587Z" stroke="#111111" stroke-width="1.5"/>
<path d="M13.5278 8.03834C13.5278 8.84802 12.8433 9.50516 12 9.50516V11.2654C12.8914 11.2654 13.7463 10.9254 14.3766 10.3202C15.007 9.715 15.3611 8.8942 15.3611 8.03834H13.5278ZM12 9.50516C11.1567 9.50516 10.4722 8.84802 10.4722 8.03834H8.63888C8.63888 8.8942 8.99299 9.715 9.62332 10.3202C10.2537 10.9254 11.1086 11.2654 12 11.2654V9.50516ZM10.4722 8.03834C10.4722 7.22865 11.1567 6.57151 12 6.57151V4.81131C11.1086 4.81131 10.2537 5.1513 9.62332 5.75648C8.99299 6.36167 8.63888 7.18247 8.63888 8.03834H10.4722ZM12 6.57151C12.8433 6.57151 13.5278 7.22865 13.5278 8.03834H15.3611C15.3611 7.18247 15.007 6.36167 14.3766 5.75648C13.7463 5.1513 12.8914 4.81131 12 4.81131V6.57151ZM3.64733 18.4305L2.76855 18.1794L2.62555 18.6394L2.95188 19.0032L3.64733 18.4305ZM20.3526 18.4305L21.0493 19.0044L21.3744 18.6406L21.2314 18.1794L20.3526 18.4305ZM8.33332 15.9592H15.6666V14.199H8.33332V15.9592ZM8.33332 14.199C7.08311 14.1991 5.86629 14.5865 4.86372 15.3036C3.86115 16.0207 3.12635 17.0293 2.76855 18.1794L4.5261 18.6817C4.7712 17.895 5.27402 17.2052 5.9599 16.7148C6.64577 16.2243 7.47812 15.9594 8.33332 15.9592V14.199ZM12 21.2398C10.5448 21.2414 9.10664 20.9399 7.78465 20.356C6.46266 19.7721 5.28836 18.9198 4.34277 17.8579L2.95188 19.0032C4.06956 20.2576 5.45724 21.2656 7.0193 21.9554C8.58135 22.6452 10.2806 23.0016 12 23V21.2398ZM15.6666 15.9592C17.4633 15.9592 18.985 17.1069 19.4739 18.6817L21.2314 18.1794C20.8736 17.0293 20.1388 16.0207 19.1363 15.3036C18.1337 14.5865 16.9169 14.1991 15.6666 14.199V15.9592ZM19.6572 17.8579C18.7116 18.9198 17.5373 19.7721 16.2153 20.356C14.8933 20.9399 13.4551 21.2414 12 21.2398V23C13.7193 23.0016 15.4186 22.6452 16.9807 21.9554C18.5427 21.2656 19.9316 20.2588 21.0493 19.0044L19.6572 17.8579Z" fill="#111111"/>
</svg>
