<svg width="23" height="23" viewBox="0 0 23 23" fill="none" xmlns="http://www.w3.org/2000/svg">
<path fill-rule="evenodd" clip-rule="evenodd" d="M3.87639 1.29404C1.59818 2.82618 0.0296653 5.88377 0.162551 9.41665C0.328278 13.8267 3.48528 17.6639 8.81273 21.0479C9.60257 21.55 10.4369 22.2042 11.3838 22.1878C12.3132 22.1716 13.1592 21.476 13.9148 20.9581C19.1193 17.3923 22.1422 13.4465 22.1547 9.03459C22.1648 5.49922 20.491 2.49918 18.1609 1.04588C15.9811 -0.311011 13.2731 -0.272524 11.0301 1.8262C8.71545 -0.193344 6.00781 -0.13897 3.87639 1.29404ZM5.02062 3.3877C6.53654 2.36878 8.45306 2.37093 10.144 4.20694C10.2678 4.34073 10.4141 4.44607 10.5745 4.51691C10.7349 4.58775 10.9062 4.62267 11.0786 4.61968C11.251 4.61668 11.421 4.57583 11.5788 4.49946C11.7366 4.4231 11.8792 4.31273 11.9983 4.17473C13.6244 2.28109 15.5397 2.21237 17.0901 3.17802C18.6961 4.17939 19.9615 6.34062 19.9541 9.02026C19.9458 12.0899 17.8207 15.4065 12.7543 18.8781C12.3107 19.1829 11.8488 19.5711 11.3412 19.7376C10.8282 19.5888 10.353 19.2169 9.89916 18.9277C4.7152 15.6342 2.47621 12.3946 2.36127 9.32467C2.25978 6.64937 3.45035 4.44425 5.02062 3.3877Z" fill="#111111"/>
</svg>
