<svg width="22" height="22" viewBox="0 0 22 22" fill="none" xmlns="http://www.w3.org/2000/svg">
<path d="M16.7891 4.59463L13.4588 0L1.21314 9.62635L0.534286 9.61914V9.62945H0V22H22V9.62945H20.9922L18.987 3.85755L16.7891 4.59463ZM18.7786 9.62945H8.27305L16.0977 7.00483L17.6922 6.50279L18.7786 9.62945ZM14.719 5.28944L6.64191 7.99859L13.0387 2.96996L14.719 5.28944ZM2.09524 18.0507V13.5767C2.53722 13.4226 2.93868 13.1733 3.27035 12.8471C3.60201 12.521 3.85552 12.126 4.01238 11.6912H17.9876C18.1444 12.1262 18.3979 12.5213 18.7295 12.8476C19.0612 13.174 19.4627 13.4234 19.9048 13.5777V18.0517C19.4627 18.206 19.0612 18.4554 18.7295 18.7818C18.3979 19.1082 18.1444 19.5032 17.9876 19.9382H4.01448C3.85753 19.5029 3.60377 19.1075 3.27174 18.7809C2.9397 18.4544 2.53775 18.2049 2.09524 18.0507Z" fill="#111111"/>
</svg>
