<svg width="52" height="52" viewBox="0 0 52 52" fill="none" xmlns="http://www.w3.org/2000/svg">
<rect width="52" height="52" rx="10" fill="#E8FCFF"/>
<path d="M24.8667 9.03593C15.8378 9.60699 9 17.3256 9 26.1495V38.4735C9 41.5315 11.5311 44 14.6667 44H16.5556C18.6333 44 20.3333 42.3421 20.3333 40.3157V32.9471C20.3333 30.9207 18.6333 29.2628 16.5556 29.2628H12.7778V26.1127C12.7778 19.0388 18.3689 12.886 25.6033 12.6834C27.3729 12.6313 29.1351 12.9264 30.7855 13.5511C32.4358 14.1759 33.9407 15.1175 35.2109 16.3201C36.4811 17.5228 37.4907 18.962 38.1797 20.5524C38.8688 22.1428 39.2233 23.8519 39.2222 25.5785V29.2628H35.4444C33.3667 29.2628 31.6667 30.9207 31.6667 32.9471V40.3157C31.6667 42.3421 33.3667 44 35.4444 44H37.3333C40.4689 44 43 41.5315 43 38.4735V25.5785C43 16.0545 34.7644 8.40959 24.8667 9.03593Z" fill="#016170"/>
</svg>
