<svg width="18" height="18" viewBox="0 0 18 18" fill="none" xmlns="http://www.w3.org/2000/svg">
<path d="M7.00493 3.0984C7.76144 1.14193 8.1397 0.162474 8.7548 0.0267439C8.9164 -0.00891464 9.08341 -0.00891464 9.24501 0.0267439C9.85893 0.161251 10.2384 1.14071 10.9949 3.0984C11.425 4.21114 11.6394 4.76751 12.0424 5.14658C12.1556 5.25296 12.2781 5.34712 12.4077 5.42782C12.8732 5.72007 13.4541 5.77387 14.616 5.88148C16.5827 6.06489 17.5655 6.15538 17.8659 6.73743C17.9281 6.85807 17.9703 6.98869 17.9908 7.12383C18.091 7.77558 17.3675 8.45668 15.9216 9.82254L15.521 10.2016C14.8446 10.8399 14.5076 11.159 14.312 11.5565C14.1941 11.7952 14.1152 12.0527 14.0787 12.3183C14.0174 12.7597 14.1164 13.2231 14.3143 14.1488L14.385 14.4789C14.7397 16.1395 14.9177 16.9698 14.6961 17.3769C14.5982 17.5573 14.4577 17.7089 14.2879 17.8176C14.1181 17.9262 13.9244 17.9884 13.7252 17.9981C13.275 18.0214 12.6399 17.4846 11.3684 16.4097C10.5318 15.7017 10.1135 15.3483 9.64918 15.2102C9.22487 15.084 8.77494 15.084 8.35063 15.2102C7.88635 15.3483 7.46685 15.7017 6.63021 16.4097C5.35993 17.4833 4.72479 18.0214 4.27348 17.9994C4.07428 17.9892 3.88081 17.9268 3.7112 17.818C3.54158 17.7091 3.40137 17.5574 3.30368 17.3769C3.08215 16.9698 3.26008 16.1395 3.61477 14.4789L3.68547 14.1488C3.88344 13.2231 3.98242 12.7597 3.92115 12.3183C3.88416 12.0528 3.80534 11.7954 3.68783 11.5565C3.49222 11.159 3.15521 10.8399 2.47882 10.2016L2.07818 9.82254C0.632324 8.4579 -0.0900145 7.77558 0.00896831 7.12383C0.02948 6.98869 0.0717019 6.85807 0.133875 6.73743C0.434359 6.15538 1.4183 6.06489 3.38381 5.88148C4.54568 5.77387 5.12661 5.72007 5.59089 5.42904C5.72116 5.34735 5.8435 5.25275 5.95618 5.14658C6.36036 4.76751 6.57483 4.21114 7.00493 3.0984Z" fill="#F8E329"/>
</svg>
